<svg width="15" height="15" viewBox="0 0 15 15" fill="none" xmlns="http://www.w3.org/2000/svg">
<circle cx="7.5" cy="7.5" r="7.5" fill="#3366FF"/>
<path fill-rule="evenodd" clip-rule="evenodd" d="M6.51307 10.2717C6.38557 10.2717 6.26361 10.219 6.1763 10.1262L3.92981 7.7337C3.75473 7.54799 3.76443 7.25558 3.95014 7.08096C4.1363 6.90634 4.42872 6.91558 4.60288 7.10128L6.50845 9.12973L10.3926 4.87881C10.5654 4.68987 10.8573 4.6774 11.0458 4.84924C11.2338 5.02109 11.2467 5.31351 11.0749 5.50153L6.85399 10.1211C6.76761 10.2163 6.64473 10.2708 6.5163 10.2717H6.51307Z" fill="white"/>
<mask id="mask0_2_1781" style="mask-type:luminance" maskUnits="userSpaceOnUse" x="3" y="4" width="9" height="7">
<path fill-rule="evenodd" clip-rule="evenodd" d="M6.51307 10.2717C6.38557 10.2717 6.26361 10.219 6.1763 10.1262L3.92981 7.7337C3.75473 7.54799 3.76443 7.25558 3.95014 7.08096C4.1363 6.90634 4.42872 6.91558 4.60288 7.10128L6.50845 9.12973L10.3926 4.87881C10.5654 4.68987 10.8573 4.6774 11.0458 4.84924C11.2338 5.02109 11.2467 5.31351 11.0749 5.50153L6.85399 10.1211C6.76761 10.2163 6.64473 10.2708 6.5163 10.2717H6.51307Z" fill="white"/>
</mask>
<g mask="url(#mask0_2_1781)">
<rect x="1.95654" y="1.95654" width="11.087" height="11.087" fill="white"/>
</g>
</svg>
