<svg width="208" height="54" viewBox="0 0 208 54" fill="none" xmlns="http://www.w3.org/2000/svg">
<g opacity="0.7">
<path d="M84.9224 30.0278V19.8038H80.8904V17.4278H91.8704V19.8038H87.8384V30.0278H84.9224ZM96.1213 22.5038H102.187V24.7718H96.1213V22.5038ZM96.3373 27.6878H103.195V30.0278H93.4393V17.4278H102.961V19.7678H96.3373V27.6878ZM111.545 30.2438C110.573 30.2438 109.667 30.0878 108.827 29.7758C107.999 29.4518 107.279 28.9958 106.667 28.4078C106.055 27.8198 105.575 27.1298 105.227 26.3378C104.891 25.5458 104.723 24.6758 104.723 23.7278C104.723 22.7798 104.891 21.9098 105.227 21.1178C105.575 20.3258 106.055 19.6358 106.667 19.0478C107.291 18.4598 108.017 18.0098 108.845 17.6978C109.673 17.3738 110.579 17.2118 111.563 17.2118C112.655 17.2118 113.639 17.4038 114.515 17.7878C115.403 18.1598 116.147 18.7118 116.747 19.4438L114.875 21.1718C114.443 20.6798 113.963 20.3138 113.435 20.0738C112.907 19.8218 112.331 19.6958 111.707 19.6958C111.119 19.6958 110.579 19.7918 110.087 19.9838C109.595 20.1758 109.169 20.4518 108.809 20.8118C108.449 21.1718 108.167 21.5978 107.963 22.0898C107.771 22.5818 107.675 23.1278 107.675 23.7278C107.675 24.3278 107.771 24.8738 107.963 25.3658C108.167 25.8578 108.449 26.2838 108.809 26.6438C109.169 27.0038 109.595 27.2798 110.087 27.4718C110.579 27.6638 111.119 27.7598 111.707 27.7598C112.331 27.7598 112.907 27.6398 113.435 27.3998C113.963 27.1478 114.443 26.7698 114.875 26.2658L116.747 27.9938C116.147 28.7258 115.403 29.2838 114.515 29.6678C113.639 30.0518 112.649 30.2438 111.545 30.2438ZM127.357 17.4278H130.273V30.0278H127.357V17.4278ZM121.633 30.0278H118.717V17.4278H121.633V30.0278ZM127.573 24.8618H121.417V22.3958H127.573V24.8618ZM133.254 30.0278V17.4278H139.41C140.994 17.4278 142.182 17.7278 142.974 18.3278C143.778 18.9278 144.18 19.7198 144.18 20.7038C144.18 21.3638 144.018 21.9398 143.694 22.4318C143.37 22.9118 142.926 23.2838 142.362 23.5478C141.798 23.8118 141.15 23.9438 140.418 23.9438L140.76 23.2058C141.552 23.2058 142.254 23.3378 142.866 23.6018C143.478 23.8538 143.952 24.2318 144.288 24.7358C144.636 25.2398 144.81 25.8578 144.81 26.5898C144.81 27.6698 144.384 28.5158 143.532 29.1278C142.68 29.7278 141.426 30.0278 139.77 30.0278H133.254ZM136.152 27.8318H139.554C140.31 27.8318 140.88 27.7118 141.264 27.4718C141.66 27.2198 141.858 26.8238 141.858 26.2838C141.858 25.7558 141.66 25.3658 141.264 25.1138C140.88 24.8498 140.31 24.7178 139.554 24.7178H135.936V22.5938H139.05C139.758 22.5938 140.298 22.4738 140.67 22.2338C141.054 21.9818 141.246 21.6038 141.246 21.0998C141.246 20.6078 141.054 20.2418 140.67 20.0018C140.298 19.7498 139.758 19.6238 139.05 19.6238H136.152V27.8318ZM147.017 30.0278V17.4278H152.471C153.599 17.4278 154.571 17.6138 155.387 17.9858C156.203 18.3458 156.833 18.8678 157.277 19.5518C157.721 20.2358 157.943 21.0518 157.943 21.9998C157.943 22.9358 157.721 23.7458 157.277 24.4298C156.833 25.1018 156.203 25.6178 155.387 25.9778C154.571 26.3378 153.599 26.5178 152.471 26.5178H148.637L149.933 25.2398V30.0278H147.017ZM155.027 30.0278L151.877 25.4558H154.991L158.177 30.0278H155.027ZM149.933 25.5638L148.637 24.1958H152.309C153.209 24.1958 153.881 24.0038 154.325 23.6198C154.769 23.2238 154.991 22.6838 154.991 21.9998C154.991 21.3038 154.769 20.7638 154.325 20.3798C153.881 19.9958 153.209 19.8038 152.309 19.8038H148.637L149.933 18.4178V25.5638ZM158.598 30.0278L164.214 17.4278H167.094L172.728 30.0278H169.668L165.06 18.9038H166.212L161.586 30.0278H158.598ZM161.406 27.3278L162.18 25.1138H168.66L169.452 27.3278H161.406ZM174.035 30.0278V17.4278H176.447L183.881 26.4998H182.711V17.4278H185.591V30.0278H183.197L175.745 20.9558H176.915V30.0278H174.035ZM188.572 30.0278V17.4278H194.296C195.664 17.4278 196.87 17.6918 197.914 18.2198C198.958 18.7358 199.774 19.4618 200.362 20.3978C200.95 21.3338 201.244 22.4438 201.244 23.7278C201.244 24.9998 200.95 26.1098 200.362 27.0578C199.774 27.9938 198.958 28.7258 197.914 29.2538C196.87 29.7698 195.664 30.0278 194.296 30.0278H188.572ZM191.488 27.6338H194.152C194.992 27.6338 195.718 27.4778 196.33 27.1658C196.954 26.8418 197.434 26.3858 197.77 25.7978C198.118 25.2098 198.292 24.5198 198.292 23.7278C198.292 22.9238 198.118 22.2338 197.77 21.6578C197.434 21.0698 196.954 20.6198 196.33 20.3078C195.718 19.9838 194.992 19.8218 194.152 19.8218H191.488V27.6338Z" fill="#C7F0FD"/>
<path d="M82.313 44.5527V41.9787L82.646 42.8607L79.874 38.2527H81.422L83.546 41.7897H82.655L84.788 38.2527H86.219L83.447 42.8607L83.771 41.9787V44.5527H82.313ZM89.6166 44.6607C89.1186 44.6607 88.6566 44.5797 88.2306 44.4177C87.8106 44.2557 87.4446 44.0277 87.1326 43.7337C86.8266 43.4397 86.5866 43.0947 86.4126 42.6987C86.2446 42.3027 86.1606 41.8707 86.1606 41.4027C86.1606 40.9347 86.2446 40.5027 86.4126 40.1067C86.5866 39.7107 86.8296 39.3657 87.1416 39.0717C87.4536 38.7777 87.8196 38.5497 88.2396 38.3877C88.6596 38.2257 89.1156 38.1447 89.6076 38.1447C90.1056 38.1447 90.5616 38.2257 90.9756 38.3877C91.3956 38.5497 91.7586 38.7777 92.0646 39.0717C92.3766 39.3657 92.6196 39.7107 92.7936 40.1067C92.9676 40.4967 93.0546 40.9287 93.0546 41.4027C93.0546 41.8707 92.9676 42.3057 92.7936 42.7077C92.6196 43.1037 92.3766 43.4487 92.0646 43.7427C91.7586 44.0307 91.3956 44.2557 90.9756 44.4177C90.5616 44.5797 90.1086 44.6607 89.6166 44.6607ZM89.6076 43.4187C89.8896 43.4187 90.1476 43.3707 90.3816 43.2747C90.6216 43.1787 90.8316 43.0407 91.0116 42.8607C91.1916 42.6807 91.3296 42.4677 91.4256 42.2217C91.5276 41.9757 91.5786 41.7027 91.5786 41.4027C91.5786 41.1027 91.5276 40.8297 91.4256 40.5837C91.3296 40.3377 91.1916 40.1247 91.0116 39.9447C90.8376 39.7647 90.6306 39.6267 90.3906 39.5307C90.1506 39.4347 89.8896 39.3867 89.6076 39.3867C89.3256 39.3867 89.0646 39.4347 88.8246 39.5307C88.5906 39.6267 88.3836 39.7647 88.2036 39.9447C88.0236 40.1247 87.8826 40.3377 87.7806 40.5837C87.6846 40.8297 87.6366 41.1027 87.6366 41.4027C87.6366 41.6967 87.6846 41.9697 87.7806 42.2217C87.8826 42.4677 88.0206 42.6807 88.1946 42.8607C88.3746 43.0407 88.5846 43.1787 88.8246 43.2747C89.0646 43.3707 89.3256 43.4187 89.6076 43.4187ZM96.9493 44.6607C96.0553 44.6607 95.3563 44.4117 94.8523 43.9137C94.3483 43.4157 94.0963 42.7047 94.0963 41.7807V38.2527H95.5543V41.7267C95.5543 42.3267 95.6773 42.7587 95.9233 43.0227C96.1693 43.2867 96.5143 43.4187 96.9583 43.4187C97.4023 43.4187 97.7473 43.2867 97.9933 43.0227C98.2393 42.7587 98.3623 42.3267 98.3623 41.7267V38.2527H99.8023V41.7807C99.8023 42.7047 99.5503 43.4157 99.0463 43.9137C98.5423 44.4117 97.8433 44.6607 96.9493 44.6607ZM101.243 44.5527V38.2527H103.97C104.534 38.2527 105.02 38.3457 105.428 38.5317C105.836 38.7117 106.151 38.9727 106.373 39.3147C106.595 39.6567 106.706 40.0647 106.706 40.5387C106.706 41.0067 106.595 41.4117 106.373 41.7537C106.151 42.0897 105.836 42.3477 105.428 42.5277C105.02 42.7077 104.534 42.7977 103.97 42.7977H102.053L102.701 42.1587V44.5527H101.243ZM105.248 44.5527L103.673 42.2667H105.23L106.823 44.5527H105.248ZM102.701 42.3207L102.053 41.6367H103.889C104.339 41.6367 104.675 41.5407 104.897 41.3487C105.119 41.1507 105.23 40.8807 105.23 40.5387C105.23 40.1907 105.119 39.9207 104.897 39.7287C104.675 39.5367 104.339 39.4407 103.889 39.4407H102.053L102.701 38.7477V42.3207ZM111.715 44.5527V39.4407H109.699V38.2527H115.189V39.4407H113.173V44.5527H111.715ZM114.829 44.5527L117.637 38.2527H119.077L121.894 44.5527H120.364L118.06 38.9907H118.636L116.323 44.5527H114.829ZM116.233 43.2027L116.62 42.0957H119.86L120.256 43.2027H116.233ZM125.502 44.6607C125.004 44.6607 124.545 44.5827 124.125 44.4267C123.711 44.2647 123.348 44.0367 123.036 43.7427C122.73 43.4487 122.49 43.1037 122.316 42.7077C122.148 42.3117 122.064 41.8767 122.064 41.4027C122.064 40.9287 122.148 40.4937 122.316 40.0977C122.49 39.7017 122.733 39.3567 123.045 39.0627C123.357 38.7687 123.723 38.5437 124.143 38.3877C124.563 38.2257 125.025 38.1447 125.529 38.1447C126.087 38.1447 126.588 38.2377 127.032 38.4237C127.482 38.6097 127.86 38.8797 128.166 39.2337L127.23 40.0977C127.002 39.8577 126.753 39.6807 126.483 39.5667C126.213 39.4467 125.919 39.3867 125.601 39.3867C125.295 39.3867 125.016 39.4347 124.764 39.5307C124.512 39.6267 124.293 39.7647 124.107 39.9447C123.927 40.1247 123.786 40.3377 123.684 40.5837C123.588 40.8297 123.54 41.1027 123.54 41.4027C123.54 41.6967 123.588 41.9667 123.684 42.2127C123.786 42.4587 123.927 42.6747 124.107 42.8607C124.293 43.0407 124.509 43.1787 124.755 43.2747C125.007 43.3707 125.283 43.4187 125.583 43.4187C125.871 43.4187 126.15 43.3737 126.42 43.2837C126.696 43.1877 126.963 43.0287 127.221 42.8067L128.049 43.8597C127.707 44.1177 127.308 44.3157 126.852 44.4537C126.402 44.5917 125.952 44.6607 125.502 44.6607ZM126.717 43.6707V41.3037H128.049V43.8597L126.717 43.6707ZM129.403 44.5527V38.2527H130.861V43.3647H134.02V44.5527H129.403ZM134.835 44.5527V38.2527H136.293V44.5527H134.835ZM137.788 44.5527V38.2527H138.994L142.711 42.7887H142.126V38.2527H143.566V44.5527H142.369L138.643 40.0167H139.228V44.5527H137.788ZM146.398 40.7907H149.431V41.9247H146.398V40.7907ZM146.506 43.3827H149.935V44.5527H145.057V38.2527H149.818V39.4227H146.506V43.3827ZM156.685 44.6607C156.187 44.6607 155.728 44.5827 155.308 44.4267C154.894 44.2647 154.531 44.0367 154.219 43.7427C153.913 43.4487 153.673 43.1037 153.499 42.7077C153.331 42.3117 153.247 41.8767 153.247 41.4027C153.247 40.9287 153.331 40.4937 153.499 40.0977C153.673 39.7017 153.916 39.3567 154.228 39.0627C154.54 38.7687 154.906 38.5437 155.326 38.3877C155.746 38.2257 156.208 38.1447 156.712 38.1447C157.27 38.1447 157.771 38.2377 158.215 38.4237C158.665 38.6097 159.043 38.8797 159.349 39.2337L158.413 40.0977C158.185 39.8577 157.936 39.6807 157.666 39.5667C157.396 39.4467 157.102 39.3867 156.784 39.3867C156.478 39.3867 156.199 39.4347 155.947 39.5307C155.695 39.6267 155.476 39.7647 155.29 39.9447C155.11 40.1247 154.969 40.3377 154.867 40.5837C154.771 40.8297 154.723 41.1027 154.723 41.4027C154.723 41.6967 154.771 41.9667 154.867 42.2127C154.969 42.4587 155.11 42.6747 155.29 42.8607C155.476 43.0407 155.692 43.1787 155.938 43.2747C156.19 43.3707 156.466 43.4187 156.766 43.4187C157.054 43.4187 157.333 43.3737 157.603 43.2837C157.879 43.1877 158.146 43.0287 158.404 42.8067L159.232 43.8597C158.89 44.1177 158.491 44.3157 158.035 44.4537C157.585 44.5917 157.135 44.6607 156.685 44.6607ZM157.9 43.6707V41.3037H159.232V43.8597L157.9 43.6707ZM163.647 44.6607C163.149 44.6607 162.687 44.5797 162.261 44.4177C161.841 44.2557 161.475 44.0277 161.163 43.7337C160.857 43.4397 160.617 43.0947 160.443 42.6987C160.275 42.3027 160.191 41.8707 160.191 41.4027C160.191 40.9347 160.275 40.5027 160.443 40.1067C160.617 39.7107 160.86 39.3657 161.172 39.0717C161.484 38.7777 161.85 38.5497 162.27 38.3877C162.69 38.2257 163.146 38.1447 163.638 38.1447C164.136 38.1447 164.592 38.2257 165.006 38.3877C165.426 38.5497 165.789 38.7777 166.095 39.0717C166.407 39.3657 166.65 39.7107 166.824 40.1067C166.998 40.4967 167.085 40.9287 167.085 41.4027C167.085 41.8707 166.998 42.3057 166.824 42.7077C166.65 43.1037 166.407 43.4487 166.095 43.7427C165.789 44.0307 165.426 44.2557 165.006 44.4177C164.592 44.5797 164.139 44.6607 163.647 44.6607ZM163.638 43.4187C163.92 43.4187 164.178 43.3707 164.412 43.2747C164.652 43.1787 164.862 43.0407 165.042 42.8607C165.222 42.6807 165.36 42.4677 165.456 42.2217C165.558 41.9757 165.609 41.7027 165.609 41.4027C165.609 41.1027 165.558 40.8297 165.456 40.5837C165.36 40.3377 165.222 40.1247 165.042 39.9447C164.868 39.7647 164.661 39.6267 164.421 39.5307C164.181 39.4347 163.92 39.3867 163.638 39.3867C163.356 39.3867 163.095 39.4347 162.855 39.5307C162.621 39.6267 162.414 39.7647 162.234 39.9447C162.054 40.1247 161.913 40.3377 161.811 40.5837C161.715 40.8297 161.667 41.1027 161.667 41.4027C161.667 41.6967 161.715 41.9697 161.811 42.2217C161.913 42.4677 162.051 42.6807 162.225 42.8607C162.405 43.0407 162.615 43.1787 162.855 43.2747C163.095 43.3707 163.356 43.4187 163.638 43.4187ZM169.522 40.7907H172.555V41.9247H169.522V40.7907ZM169.63 43.3827H173.059V44.5527H168.181V38.2527H172.942V39.4227H169.63V43.3827ZM176.289 44.6607C175.785 44.6607 175.302 44.5947 174.84 44.4627C174.378 44.3247 174.006 44.1477 173.724 43.9317L174.219 42.8337C174.489 43.0257 174.807 43.1847 175.173 43.3107C175.545 43.4307 175.92 43.4907 176.298 43.4907C176.586 43.4907 176.817 43.4637 176.991 43.4097C177.171 43.3497 177.303 43.2687 177.387 43.1667C177.471 43.0647 177.513 42.9477 177.513 42.8157C177.513 42.6477 177.447 42.5157 177.315 42.4197C177.183 42.3177 177.009 42.2367 176.793 42.1767C176.577 42.1107 176.337 42.0507 176.073 41.9967C175.815 41.9367 175.554 41.8647 175.29 41.7807C175.032 41.6967 174.795 41.5887 174.579 41.4567C174.363 41.3247 174.186 41.1507 174.048 40.9347C173.916 40.7187 173.85 40.4427 173.85 40.1067C173.85 39.7467 173.946 39.4197 174.138 39.1257C174.336 38.8257 174.63 38.5887 175.02 38.4147C175.416 38.2347 175.911 38.1447 176.505 38.1447C176.901 38.1447 177.291 38.1927 177.675 38.2887C178.059 38.3787 178.398 38.5167 178.692 38.7027L178.242 39.8097C177.948 39.6417 177.654 39.5187 177.36 39.4407C177.066 39.3567 176.778 39.3147 176.496 39.3147C176.214 39.3147 175.983 39.3477 175.803 39.4137C175.623 39.4797 175.494 39.5667 175.416 39.6747C175.338 39.7767 175.299 39.8967 175.299 40.0347C175.299 40.1967 175.365 40.3287 175.497 40.4307C175.629 40.5267 175.803 40.6047 176.019 40.6647C176.235 40.7247 176.472 40.7847 176.73 40.8447C176.994 40.9047 177.255 40.9737 177.513 41.0517C177.777 41.1297 178.017 41.2347 178.233 41.3667C178.449 41.4987 178.623 41.6727 178.755 41.8887C178.893 42.1047 178.962 42.3777 178.962 42.7077C178.962 43.0617 178.863 43.3857 178.665 43.6797C178.467 43.9737 178.17 44.2107 177.774 44.3907C177.384 44.5707 176.889 44.6607 176.289 44.6607ZM186.827 38.2527H188.285V44.5527H186.827V38.2527ZM183.965 44.5527H182.507V38.2527H183.965V44.5527ZM186.935 41.9697H183.857V40.7367H186.935V41.9697ZM191.116 40.7907H194.149V41.9247H191.116V40.7907ZM191.224 43.3827H194.653V44.5527H189.775V38.2527H194.536V39.4227H191.224V43.3827ZM195.813 44.5527V38.2527H198.54C199.104 38.2527 199.59 38.3457 199.998 38.5317C200.406 38.7117 200.721 38.9727 200.943 39.3147C201.165 39.6567 201.276 40.0647 201.276 40.5387C201.276 41.0067 201.165 41.4117 200.943 41.7537C200.721 42.0897 200.406 42.3477 199.998 42.5277C199.59 42.7077 199.104 42.7977 198.54 42.7977H196.623L197.271 42.1587V44.5527H195.813ZM199.818 44.5527L198.243 42.2667H199.8L201.393 44.5527H199.818ZM197.271 42.3207L196.623 41.6367H198.459C198.909 41.6367 199.245 41.5407 199.467 41.3487C199.689 41.1507 199.8 40.8807 199.8 40.5387C199.8 40.1907 199.689 39.9207 199.467 39.7287C199.245 39.5367 198.909 39.4407 198.459 39.4407H196.623L197.271 38.7477V42.3207ZM203.773 40.7907H206.806V41.9247H203.773V40.7907ZM203.881 43.3827H207.31V44.5527H202.432V38.2527H207.193V39.4227H203.881V43.3827Z" fill="#C7F0FD"/>
</g>
<path d="M53.88 44.8365V0H31.212H19.2678H6.71322L29.6427 44.4003H18.2216H9.5031V27.2159L0 8.37414V53.9957H23.0167H34.5251H46.5565L24.1501 9.59536H36.0072H44.3769V25.9947L53.88 44.8365Z" fill="#C7F0FD"/>
<path d="M13.339 31.3159V40.3007H23.0165L18.2213 31.3159H13.339Z" fill="#C7F0FD"/>
<path d="M40.1045 21.633V12.6482H30.3398L35.2222 21.633H40.1045Z" fill="#C7F0FD"/>
</svg>
