<svg width="216" height="54" viewBox="0 0 216 54" fill="none" xmlns="http://www.w3.org/2000/svg">
<g opacity="0.7">
<path d="M92.9224 25.0171V14.7931H88.8904V12.4171H99.8704V14.7931H95.8384V25.0171H92.9224ZM104.121 17.4931H110.187V19.7611H104.121V17.4931ZM104.337 22.6771H111.195V25.0171H101.439V12.4171H110.961V14.7571H104.337V22.6771ZM119.545 25.2331C118.573 25.2331 117.667 25.0771 116.827 24.7651C115.999 24.4411 115.279 23.9851 114.667 23.3971C114.055 22.8091 113.575 22.1191 113.227 21.3271C112.891 20.5351 112.723 19.6651 112.723 18.7171C112.723 17.7691 112.891 16.8991 113.227 16.1071C113.575 15.3151 114.055 14.6251 114.667 14.0371C115.291 13.4491 116.017 12.9991 116.845 12.6871C117.673 12.3631 118.579 12.2011 119.563 12.2011C120.655 12.2011 121.639 12.3931 122.515 12.7771C123.403 13.1491 124.147 13.7011 124.747 14.4331L122.875 16.1611C122.443 15.6691 121.963 15.3031 121.435 15.0631C120.907 14.8111 120.331 14.6851 119.707 14.6851C119.119 14.6851 118.579 14.7811 118.087 14.9731C117.595 15.1651 117.169 15.4411 116.809 15.8011C116.449 16.1611 116.167 16.5871 115.963 17.0791C115.771 17.5711 115.675 18.1171 115.675 18.7171C115.675 19.3171 115.771 19.8631 115.963 20.3551C116.167 20.8471 116.449 21.2731 116.809 21.6331C117.169 21.9931 117.595 22.2691 118.087 22.4611C118.579 22.6531 119.119 22.7491 119.707 22.7491C120.331 22.7491 120.907 22.6291 121.435 22.3891C121.963 22.1371 122.443 21.7591 122.875 21.2551L124.747 22.9831C124.147 23.7151 123.403 24.2731 122.515 24.6571C121.639 25.0411 120.649 25.2331 119.545 25.2331ZM135.357 12.4171H138.273V25.0171H135.357V12.4171ZM129.633 25.0171H126.717V12.4171H129.633V25.0171ZM135.573 19.8511H129.417V17.3851H135.573V19.8511ZM141.254 25.0171V12.4171H147.41C148.994 12.4171 150.182 12.7171 150.974 13.3171C151.778 13.9171 152.18 14.7091 152.18 15.6931C152.18 16.3531 152.018 16.9291 151.694 17.4211C151.37 17.9011 150.926 18.2731 150.362 18.5371C149.798 18.8011 149.15 18.9331 148.418 18.9331L148.76 18.1951C149.552 18.1951 150.254 18.3271 150.866 18.5911C151.478 18.8431 151.952 19.2211 152.288 19.7251C152.636 20.2291 152.81 20.8471 152.81 21.5791C152.81 22.6591 152.384 23.5051 151.532 24.1171C150.68 24.7171 149.426 25.0171 147.77 25.0171H141.254ZM144.152 22.8211H147.554C148.31 22.8211 148.88 22.7011 149.264 22.4611C149.66 22.2091 149.858 21.8131 149.858 21.2731C149.858 20.7451 149.66 20.3551 149.264 20.1031C148.88 19.8391 148.31 19.7071 147.554 19.7071H143.936V17.5831H147.05C147.758 17.5831 148.298 17.4631 148.67 17.2231C149.054 16.9711 149.246 16.5931 149.246 16.0891C149.246 15.5971 149.054 15.2311 148.67 14.9911C148.298 14.7391 147.758 14.6131 147.05 14.6131H144.152V22.8211ZM155.017 25.0171V12.4171H160.471C161.599 12.4171 162.571 12.6031 163.387 12.9751C164.203 13.3351 164.833 13.8571 165.277 14.5411C165.721 15.2251 165.943 16.0411 165.943 16.9891C165.943 17.9251 165.721 18.7351 165.277 19.4191C164.833 20.0911 164.203 20.6071 163.387 20.9671C162.571 21.3271 161.599 21.5071 160.471 21.5071H156.637L157.933 20.2291V25.0171H155.017ZM163.027 25.0171L159.877 20.4451H162.991L166.177 25.0171H163.027ZM157.933 20.5531L156.637 19.1851H160.309C161.209 19.1851 161.881 18.9931 162.325 18.6091C162.769 18.2131 162.991 17.6731 162.991 16.9891C162.991 16.2931 162.769 15.7531 162.325 15.3691C161.881 14.9851 161.209 14.7931 160.309 14.7931H156.637L157.933 13.4071V20.5531ZM166.598 25.0171L172.214 12.4171H175.094L180.728 25.0171H177.668L173.06 13.8931H174.212L169.586 25.0171H166.598ZM169.406 22.3171L170.18 20.1031H176.66L177.452 22.3171H169.406ZM182.035 25.0171V12.4171H184.447L191.881 21.4891H190.711V12.4171H193.591V25.0171H191.197L183.745 15.9451H184.915V25.0171H182.035ZM196.572 25.0171V12.4171H202.296C203.664 12.4171 204.87 12.6811 205.914 13.2091C206.958 13.7251 207.774 14.4511 208.362 15.3871C208.95 16.3231 209.244 17.4331 209.244 18.7171C209.244 19.9891 208.95 21.0991 208.362 22.0471C207.774 22.9831 206.958 23.7151 205.914 24.2431C204.87 24.7591 203.664 25.0171 202.296 25.0171H196.572ZM199.488 22.6231H202.152C202.992 22.6231 203.718 22.4671 204.33 22.1551C204.954 21.8311 205.434 21.3751 205.77 20.7871C206.118 20.1991 206.292 19.5091 206.292 18.7171C206.292 17.9131 206.118 17.2231 205.77 16.6471C205.434 16.0591 204.954 15.6091 204.33 15.2971C203.718 14.9731 202.992 14.8111 202.152 14.8111H199.488V22.6231Z" fill="#C7F0FD"/>
<path d="M90.313 39.542V36.968L90.646 37.85L87.874 33.242H89.422L91.546 36.779H90.655L92.788 33.242H94.219L91.447 37.85L91.771 36.968V39.542H90.313ZM97.6166 39.65C97.1186 39.65 96.6566 39.569 96.2306 39.407C95.8106 39.245 95.4446 39.017 95.1326 38.723C94.8266 38.429 94.5866 38.084 94.4126 37.688C94.2446 37.292 94.1606 36.86 94.1606 36.392C94.1606 35.924 94.2446 35.492 94.4126 35.096C94.5866 34.7 94.8296 34.355 95.1416 34.061C95.4536 33.767 95.8196 33.539 96.2396 33.377C96.6596 33.215 97.1156 33.134 97.6076 33.134C98.1056 33.134 98.5616 33.215 98.9756 33.377C99.3956 33.539 99.7586 33.767 100.065 34.061C100.377 34.355 100.62 34.7 100.794 35.096C100.968 35.486 101.055 35.918 101.055 36.392C101.055 36.86 100.968 37.295 100.794 37.697C100.62 38.093 100.377 38.438 100.065 38.732C99.7586 39.02 99.3956 39.245 98.9756 39.407C98.5616 39.569 98.1086 39.65 97.6166 39.65ZM97.6076 38.408C97.8896 38.408 98.1476 38.36 98.3816 38.264C98.6216 38.168 98.8316 38.03 99.0116 37.85C99.1916 37.67 99.3296 37.457 99.4256 37.211C99.5276 36.965 99.5786 36.692 99.5786 36.392C99.5786 36.092 99.5276 35.819 99.4256 35.573C99.3296 35.327 99.1916 35.114 99.0116 34.934C98.8376 34.754 98.6306 34.616 98.3906 34.52C98.1506 34.424 97.8896 34.376 97.6076 34.376C97.3256 34.376 97.0646 34.424 96.8246 34.52C96.5906 34.616 96.3836 34.754 96.2036 34.934C96.0236 35.114 95.8826 35.327 95.7806 35.573C95.6846 35.819 95.6366 36.092 95.6366 36.392C95.6366 36.686 95.6846 36.959 95.7806 37.211C95.8826 37.457 96.0206 37.67 96.1946 37.85C96.3746 38.03 96.5846 38.168 96.8246 38.264C97.0646 38.36 97.3256 38.408 97.6076 38.408ZM104.949 39.65C104.055 39.65 103.356 39.401 102.852 38.903C102.348 38.405 102.096 37.694 102.096 36.77V33.242H103.554V36.716C103.554 37.316 103.677 37.748 103.923 38.012C104.169 38.276 104.514 38.408 104.958 38.408C105.402 38.408 105.747 38.276 105.993 38.012C106.239 37.748 106.362 37.316 106.362 36.716V33.242H107.802V36.77C107.802 37.694 107.55 38.405 107.046 38.903C106.542 39.401 105.843 39.65 104.949 39.65ZM109.243 39.542V33.242H111.97C112.534 33.242 113.02 33.335 113.428 33.521C113.836 33.701 114.151 33.962 114.373 34.304C114.595 34.646 114.706 35.054 114.706 35.528C114.706 35.996 114.595 36.401 114.373 36.743C114.151 37.079 113.836 37.337 113.428 37.517C113.02 37.697 112.534 37.787 111.97 37.787H110.053L110.701 37.148V39.542H109.243ZM113.248 39.542L111.673 37.256H113.23L114.823 39.542H113.248ZM110.701 37.31L110.053 36.626H111.889C112.339 36.626 112.675 36.53 112.897 36.338C113.119 36.14 113.23 35.87 113.23 35.528C113.23 35.18 113.119 34.91 112.897 34.718C112.675 34.526 112.339 34.43 111.889 34.43H110.053L110.701 33.737V37.31ZM119.715 39.542V34.43H117.699V33.242H123.189V34.43H121.173V39.542H119.715ZM122.829 39.542L125.637 33.242H127.077L129.894 39.542H128.364L126.06 33.98H126.636L124.323 39.542H122.829ZM124.233 38.192L124.62 37.085H127.86L128.256 38.192H124.233ZM133.502 39.65C133.004 39.65 132.545 39.572 132.125 39.416C131.711 39.254 131.348 39.026 131.036 38.732C130.73 38.438 130.49 38.093 130.316 37.697C130.148 37.301 130.064 36.866 130.064 36.392C130.064 35.918 130.148 35.483 130.316 35.087C130.49 34.691 130.733 34.346 131.045 34.052C131.357 33.758 131.723 33.533 132.143 33.377C132.563 33.215 133.025 33.134 133.529 33.134C134.087 33.134 134.588 33.227 135.032 33.413C135.482 33.599 135.86 33.869 136.166 34.223L135.23 35.087C135.002 34.847 134.753 34.67 134.483 34.556C134.213 34.436 133.919 34.376 133.601 34.376C133.295 34.376 133.016 34.424 132.764 34.52C132.512 34.616 132.293 34.754 132.107 34.934C131.927 35.114 131.786 35.327 131.684 35.573C131.588 35.819 131.54 36.092 131.54 36.392C131.54 36.686 131.588 36.956 131.684 37.202C131.786 37.448 131.927 37.664 132.107 37.85C132.293 38.03 132.509 38.168 132.755 38.264C133.007 38.36 133.283 38.408 133.583 38.408C133.871 38.408 134.15 38.363 134.42 38.273C134.696 38.177 134.963 38.018 135.221 37.796L136.049 38.849C135.707 39.107 135.308 39.305 134.852 39.443C134.402 39.581 133.952 39.65 133.502 39.65ZM134.717 38.66V36.293H136.049V38.849L134.717 38.66ZM137.403 39.542V33.242H138.861V38.354H142.02V39.542H137.403ZM142.835 39.542V33.242H144.293V39.542H142.835ZM145.788 39.542V33.242H146.994L150.711 37.778H150.126V33.242H151.566V39.542H150.369L146.643 35.006H147.228V39.542H145.788ZM154.398 35.78H157.431V36.914H154.398V35.78ZM154.506 38.372H157.935V39.542H153.057V33.242H157.818V34.412H154.506V38.372ZM164.685 39.65C164.187 39.65 163.728 39.572 163.308 39.416C162.894 39.254 162.531 39.026 162.219 38.732C161.913 38.438 161.673 38.093 161.499 37.697C161.331 37.301 161.247 36.866 161.247 36.392C161.247 35.918 161.331 35.483 161.499 35.087C161.673 34.691 161.916 34.346 162.228 34.052C162.54 33.758 162.906 33.533 163.326 33.377C163.746 33.215 164.208 33.134 164.712 33.134C165.27 33.134 165.771 33.227 166.215 33.413C166.665 33.599 167.043 33.869 167.349 34.223L166.413 35.087C166.185 34.847 165.936 34.67 165.666 34.556C165.396 34.436 165.102 34.376 164.784 34.376C164.478 34.376 164.199 34.424 163.947 34.52C163.695 34.616 163.476 34.754 163.29 34.934C163.11 35.114 162.969 35.327 162.867 35.573C162.771 35.819 162.723 36.092 162.723 36.392C162.723 36.686 162.771 36.956 162.867 37.202C162.969 37.448 163.11 37.664 163.29 37.85C163.476 38.03 163.692 38.168 163.938 38.264C164.19 38.36 164.466 38.408 164.766 38.408C165.054 38.408 165.333 38.363 165.603 38.273C165.879 38.177 166.146 38.018 166.404 37.796L167.232 38.849C166.89 39.107 166.491 39.305 166.035 39.443C165.585 39.581 165.135 39.65 164.685 39.65ZM165.9 38.66V36.293H167.232V38.849L165.9 38.66ZM171.647 39.65C171.149 39.65 170.687 39.569 170.261 39.407C169.841 39.245 169.475 39.017 169.163 38.723C168.857 38.429 168.617 38.084 168.443 37.688C168.275 37.292 168.191 36.86 168.191 36.392C168.191 35.924 168.275 35.492 168.443 35.096C168.617 34.7 168.86 34.355 169.172 34.061C169.484 33.767 169.85 33.539 170.27 33.377C170.69 33.215 171.146 33.134 171.638 33.134C172.136 33.134 172.592 33.215 173.006 33.377C173.426 33.539 173.789 33.767 174.095 34.061C174.407 34.355 174.65 34.7 174.824 35.096C174.998 35.486 175.085 35.918 175.085 36.392C175.085 36.86 174.998 37.295 174.824 37.697C174.65 38.093 174.407 38.438 174.095 38.732C173.789 39.02 173.426 39.245 173.006 39.407C172.592 39.569 172.139 39.65 171.647 39.65ZM171.638 38.408C171.92 38.408 172.178 38.36 172.412 38.264C172.652 38.168 172.862 38.03 173.042 37.85C173.222 37.67 173.36 37.457 173.456 37.211C173.558 36.965 173.609 36.692 173.609 36.392C173.609 36.092 173.558 35.819 173.456 35.573C173.36 35.327 173.222 35.114 173.042 34.934C172.868 34.754 172.661 34.616 172.421 34.52C172.181 34.424 171.92 34.376 171.638 34.376C171.356 34.376 171.095 34.424 170.855 34.52C170.621 34.616 170.414 34.754 170.234 34.934C170.054 35.114 169.913 35.327 169.811 35.573C169.715 35.819 169.667 36.092 169.667 36.392C169.667 36.686 169.715 36.959 169.811 37.211C169.913 37.457 170.051 37.67 170.225 37.85C170.405 38.03 170.615 38.168 170.855 38.264C171.095 38.36 171.356 38.408 171.638 38.408ZM177.522 35.78H180.555V36.914H177.522V35.78ZM177.63 38.372H181.059V39.542H176.181V33.242H180.942V34.412H177.63V38.372ZM184.289 39.65C183.785 39.65 183.302 39.584 182.84 39.452C182.378 39.314 182.006 39.137 181.724 38.921L182.219 37.823C182.489 38.015 182.807 38.174 183.173 38.3C183.545 38.42 183.92 38.48 184.298 38.48C184.586 38.48 184.817 38.453 184.991 38.399C185.171 38.339 185.303 38.258 185.387 38.156C185.471 38.054 185.513 37.937 185.513 37.805C185.513 37.637 185.447 37.505 185.315 37.409C185.183 37.307 185.009 37.226 184.793 37.166C184.577 37.1 184.337 37.04 184.073 36.986C183.815 36.926 183.554 36.854 183.29 36.77C183.032 36.686 182.795 36.578 182.579 36.446C182.363 36.314 182.186 36.14 182.048 35.924C181.916 35.708 181.85 35.432 181.85 35.096C181.85 34.736 181.946 34.409 182.138 34.115C182.336 33.815 182.63 33.578 183.02 33.404C183.416 33.224 183.911 33.134 184.505 33.134C184.901 33.134 185.291 33.182 185.675 33.278C186.059 33.368 186.398 33.506 186.692 33.692L186.242 34.799C185.948 34.631 185.654 34.508 185.36 34.43C185.066 34.346 184.778 34.304 184.496 34.304C184.214 34.304 183.983 34.337 183.803 34.403C183.623 34.469 183.494 34.556 183.416 34.664C183.338 34.766 183.299 34.886 183.299 35.024C183.299 35.186 183.365 35.318 183.497 35.42C183.629 35.516 183.803 35.594 184.019 35.654C184.235 35.714 184.472 35.774 184.73 35.834C184.994 35.894 185.255 35.963 185.513 36.041C185.777 36.119 186.017 36.224 186.233 36.356C186.449 36.488 186.623 36.662 186.755 36.878C186.893 37.094 186.962 37.367 186.962 37.697C186.962 38.051 186.863 38.375 186.665 38.669C186.467 38.963 186.17 39.2 185.774 39.38C185.384 39.56 184.889 39.65 184.289 39.65ZM194.827 33.242H196.285V39.542H194.827V33.242ZM191.965 39.542H190.507V33.242H191.965V39.542ZM194.935 36.959H191.857V35.726H194.935V36.959ZM199.116 35.78H202.149V36.914H199.116V35.78ZM199.224 38.372H202.653V39.542H197.775V33.242H202.536V34.412H199.224V38.372ZM203.813 39.542V33.242H206.54C207.104 33.242 207.59 33.335 207.998 33.521C208.406 33.701 208.721 33.962 208.943 34.304C209.165 34.646 209.276 35.054 209.276 35.528C209.276 35.996 209.165 36.401 208.943 36.743C208.721 37.079 208.406 37.337 207.998 37.517C207.59 37.697 207.104 37.787 206.54 37.787H204.623L205.271 37.148V39.542H203.813ZM207.818 39.542L206.243 37.256H207.8L209.393 39.542H207.818ZM205.271 37.31L204.623 36.626H206.459C206.909 36.626 207.245 36.53 207.467 36.338C207.689 36.14 207.8 35.87 207.8 35.528C207.8 35.18 207.689 34.91 207.467 34.718C207.245 34.526 206.909 34.43 206.459 34.43H204.623L205.271 33.737V37.31ZM211.773 35.78H214.806V36.914H211.773V35.78ZM211.881 38.372H215.31V39.542H210.432V33.242H215.193V34.412H211.881V38.372Z" fill="#C7F0FD"/>
</g>
<path d="M66.9244 35.9134C66.0018 35.9134 65.2021 36.3529 64.71 37.0436L59.7891 35.2228C60.5887 32.6486 61.0808 29.8232 61.0808 26.9351C61.0808 17.2033 56.0369 8.72721 48.5325 3.95549L45.703 10.0457C51.0545 13.6873 54.5606 19.9031 54.5606 26.9351C54.5606 29.007 54.2531 31.0161 53.6995 32.8997L48.6555 31.0789C49.0246 29.7604 49.2091 28.3791 49.2091 26.9351C49.2091 21.096 45.8875 16.0731 41.1511 13.6245C40.9666 14.3151 40.7206 14.943 40.536 15.6336C40.2285 16.5754 39.9209 17.58 39.6133 18.5846C42.3814 20.2798 44.2882 23.4191 44.2882 26.9351C44.2882 27.7513 44.1652 28.5675 43.9807 29.3209L38.8752 27.4373C38.8752 27.249 38.9367 27.0606 38.9367 26.9351C38.9367 24.5492 37.0299 22.6656 34.754 22.6656C33.2777 22.6656 31.9859 23.4818 31.1863 24.6748L26.0808 22.7912C27.6186 19.4636 30.8787 17.2033 34.6924 17.2033C36.0457 17.2033 37.3374 17.5172 38.5061 18.0195C38.9367 17.1405 39.3673 16.2615 39.7979 15.3825C40.1054 14.7546 40.413 14.064 40.7206 13.4361C38.8752 12.6199 36.8453 12.1176 34.754 12.1176C28.7873 12.1176 23.6204 15.822 21.406 21.0332L16.362 19.2124C19.3761 11.8665 26.4499 6.65528 34.754 6.65528C36.5993 6.65528 38.3831 6.90642 40.1054 7.40871L42.1968 1.06736C39.8594 0.376712 37.3374 0 34.754 0C23.6204 0 14.0861 7.032 10.2109 16.9521L5.78207 15.3197V15.2569C5.78207 13.6245 4.49033 12.306 2.89103 12.306C1.29174 12.306 0 13.6245 0 15.2569C0 16.8893 1.29174 18.2079 2.89103 18.2079C3.81371 18.2079 4.61335 17.7684 5.10544 17.0777L9.53427 18.7101C8.73462 21.2843 8.24253 24.1097 8.24253 26.9979C8.24253 38.4876 15.2548 48.2822 25.1582 52.1749L27.2496 45.8336C19.9297 42.8199 14.7627 35.5367 14.7627 26.9979C14.7627 24.9259 15.0703 22.9168 15.6239 21.0332L20.6678 22.854C20.2988 24.1725 20.1142 25.5538 20.1142 26.9979C20.1142 32.6486 23.2513 37.6086 27.8032 40.1201C28.4183 38.8643 29.0334 37.6086 29.71 36.2901C29.833 36.039 29.9561 35.7878 30.0791 35.5995C27.1265 33.9043 25.1582 30.765 25.1582 27.0606C25.1582 26.2444 25.2812 25.4282 25.4657 24.6748L30.5712 26.5583C30.5712 26.7467 30.5097 26.9351 30.5097 27.0606C30.5097 29.4465 32.4165 31.3301 34.6924 31.3301C36.1687 31.3301 37.4605 30.5138 38.2601 29.3209L43.3656 31.2045C41.8278 34.5321 38.5677 36.7924 34.754 36.7924C34.4464 36.7924 34.2003 36.7924 33.8928 36.7296C33.7698 37.1063 33.6467 37.4831 33.5237 37.8598C33.0931 39.1783 32.7241 40.434 32.355 41.6897C33.1547 41.8153 33.8928 41.8781 34.754 41.8781C40.7206 41.8781 45.8875 38.1737 48.1019 32.9625L53.1459 34.7833C50.1318 42.1292 43.058 47.3404 34.754 47.3404C32.6626 47.3404 30.6942 47.0265 28.8489 46.3986L26.0193 52.4888C28.7873 53.4934 31.7399 53.9957 34.754 53.9957C45.8875 53.9957 55.4218 46.9637 59.297 37.0436L64.2179 38.8643V38.9271C64.2179 40.5596 65.5097 41.8781 67.109 41.8781C68.7083 41.8781 70 40.5596 70 38.9271C70 37.2947 68.4622 35.9134 66.9244 35.9134Z" fill="#C7F0FD"/>
</svg>
