<svg width="200" height="54" viewBox="0 0 200 54" fill="none" xmlns="http://www.w3.org/2000/svg">
<g opacity="0.7">
<path d="M76.8024 30.0278V19.8038H72.7704V17.4278H83.7504V19.8038H79.7184V30.0278H76.8024ZM88.0013 22.5038H94.0673V24.7718H88.0013V22.5038ZM88.2173 27.6878H95.0753V30.0278H85.3193V17.4278H94.8413V19.7678H88.2173V27.6878ZM103.425 30.2438C102.453 30.2438 101.547 30.0878 100.707 29.7758C99.8795 29.4518 99.1595 28.9958 98.5475 28.4078C97.9355 27.8198 97.4555 27.1298 97.1075 26.3378C96.7715 25.5458 96.6035 24.6758 96.6035 23.7278C96.6035 22.7798 96.7715 21.9098 97.1075 21.1178C97.4555 20.3258 97.9355 19.6358 98.5475 19.0478C99.1715 18.4598 99.8975 18.0098 100.725 17.6978C101.553 17.3738 102.459 17.2118 103.443 17.2118C104.535 17.2118 105.519 17.4038 106.395 17.7878C107.283 18.1598 108.027 18.7118 108.627 19.4438L106.755 21.1718C106.323 20.6798 105.843 20.3138 105.315 20.0738C104.787 19.8218 104.211 19.6958 103.587 19.6958C102.999 19.6958 102.459 19.7918 101.967 19.9838C101.475 20.1758 101.049 20.4518 100.689 20.8118C100.329 21.1718 100.047 21.5978 99.8435 22.0898C99.6515 22.5818 99.5555 23.1278 99.5555 23.7278C99.5555 24.3278 99.6515 24.8738 99.8435 25.3658C100.047 25.8578 100.329 26.2838 100.689 26.6438C101.049 27.0038 101.475 27.2798 101.967 27.4718C102.459 27.6638 102.999 27.7598 103.587 27.7598C104.211 27.7598 104.787 27.6398 105.315 27.3998C105.843 27.1478 106.323 26.7698 106.755 26.2658L108.627 27.9938C108.027 28.7258 107.283 29.2838 106.395 29.6678C105.519 30.0518 104.529 30.2438 103.425 30.2438ZM119.237 17.4278H122.153V30.0278H119.237V17.4278ZM113.513 30.0278H110.597V17.4278H113.513V30.0278ZM119.453 24.8618H113.297V22.3958H119.453V24.8618ZM125.134 30.0278V17.4278H131.29C132.874 17.4278 134.062 17.7278 134.854 18.3278C135.658 18.9278 136.06 19.7198 136.06 20.7038C136.06 21.3638 135.898 21.9398 135.574 22.4318C135.25 22.9118 134.806 23.2838 134.242 23.5478C133.678 23.8118 133.03 23.9438 132.298 23.9438L132.64 23.2058C133.432 23.2058 134.134 23.3378 134.746 23.6018C135.358 23.8538 135.832 24.2318 136.168 24.7358C136.516 25.2398 136.69 25.8578 136.69 26.5898C136.69 27.6698 136.264 28.5158 135.412 29.1278C134.56 29.7278 133.306 30.0278 131.65 30.0278H125.134ZM128.032 27.8318H131.434C132.19 27.8318 132.76 27.7118 133.144 27.4718C133.54 27.2198 133.738 26.8238 133.738 26.2838C133.738 25.7558 133.54 25.3658 133.144 25.1138C132.76 24.8498 132.19 24.7178 131.434 24.7178H127.816V22.5938H130.93C131.638 22.5938 132.178 22.4738 132.55 22.2338C132.934 21.9818 133.126 21.6038 133.126 21.0998C133.126 20.6078 132.934 20.2418 132.55 20.0018C132.178 19.7498 131.638 19.6238 130.93 19.6238H128.032V27.8318ZM138.897 30.0278V17.4278H144.351C145.479 17.4278 146.451 17.6138 147.267 17.9858C148.083 18.3458 148.713 18.8678 149.157 19.5518C149.601 20.2358 149.823 21.0518 149.823 21.9998C149.823 22.9358 149.601 23.7458 149.157 24.4298C148.713 25.1018 148.083 25.6178 147.267 25.9778C146.451 26.3378 145.479 26.5178 144.351 26.5178H140.517L141.813 25.2398V30.0278H138.897ZM146.907 30.0278L143.757 25.4558H146.871L150.057 30.0278H146.907ZM141.813 25.5638L140.517 24.1958H144.189C145.089 24.1958 145.761 24.0038 146.205 23.6198C146.649 23.2238 146.871 22.6838 146.871 21.9998C146.871 21.3038 146.649 20.7638 146.205 20.3798C145.761 19.9958 145.089 19.8038 144.189 19.8038H140.517L141.813 18.4178V25.5638ZM150.478 30.0278L156.094 17.4278H158.974L164.608 30.0278H161.548L156.94 18.9038H158.092L153.466 30.0278H150.478ZM153.286 27.3278L154.06 25.1138H160.54L161.332 27.3278H153.286ZM165.915 30.0278V17.4278H168.327L175.761 26.4998H174.591V17.4278H177.471V30.0278H175.077L167.625 20.9558H168.795V30.0278H165.915ZM180.452 30.0278V17.4278H186.176C187.544 17.4278 188.75 17.6918 189.794 18.2198C190.838 18.7358 191.654 19.4618 192.242 20.3978C192.83 21.3338 193.124 22.4438 193.124 23.7278C193.124 24.9998 192.83 26.1098 192.242 27.0578C191.654 27.9938 190.838 28.7258 189.794 29.2538C188.75 29.7698 187.544 30.0278 186.176 30.0278H180.452ZM183.368 27.6338H186.032C186.872 27.6338 187.598 27.4778 188.21 27.1658C188.834 26.8418 189.314 26.3858 189.65 25.7978C189.998 25.2098 190.172 24.5198 190.172 23.7278C190.172 22.9238 189.998 22.2338 189.65 21.6578C189.314 21.0698 188.834 20.6198 188.21 20.3078C187.598 19.9838 186.872 19.8218 186.032 19.8218H183.368V27.6338Z" fill="#3366FF"/>
<path d="M74.193 44.5527V41.9787L74.526 42.8607L71.754 38.2527H73.302L75.426 41.7897H74.535L76.668 38.2527H78.099L75.327 42.8607L75.651 41.9787V44.5527H74.193ZM81.4966 44.6607C80.9986 44.6607 80.5366 44.5797 80.1106 44.4177C79.6906 44.2557 79.3246 44.0277 79.0126 43.7337C78.7066 43.4397 78.4666 43.0947 78.2926 42.6987C78.1246 42.3027 78.0406 41.8707 78.0406 41.4027C78.0406 40.9347 78.1246 40.5027 78.2926 40.1067C78.4666 39.7107 78.7096 39.3657 79.0216 39.0717C79.3336 38.7777 79.6996 38.5497 80.1196 38.3877C80.5396 38.2257 80.9956 38.1447 81.4876 38.1447C81.9856 38.1447 82.4416 38.2257 82.8556 38.3877C83.2756 38.5497 83.6386 38.7777 83.9446 39.0717C84.2566 39.3657 84.4996 39.7107 84.6736 40.1067C84.8476 40.4967 84.9346 40.9287 84.9346 41.4027C84.9346 41.8707 84.8476 42.3057 84.6736 42.7077C84.4996 43.1037 84.2566 43.4487 83.9446 43.7427C83.6386 44.0307 83.2756 44.2557 82.8556 44.4177C82.4416 44.5797 81.9886 44.6607 81.4966 44.6607ZM81.4876 43.4187C81.7696 43.4187 82.0276 43.3707 82.2616 43.2747C82.5016 43.1787 82.7116 43.0407 82.8916 42.8607C83.0716 42.6807 83.2096 42.4677 83.3056 42.2217C83.4076 41.9757 83.4586 41.7027 83.4586 41.4027C83.4586 41.1027 83.4076 40.8297 83.3056 40.5837C83.2096 40.3377 83.0716 40.1247 82.8916 39.9447C82.7176 39.7647 82.5106 39.6267 82.2706 39.5307C82.0306 39.4347 81.7696 39.3867 81.4876 39.3867C81.2056 39.3867 80.9446 39.4347 80.7046 39.5307C80.4706 39.6267 80.2636 39.7647 80.0836 39.9447C79.9036 40.1247 79.7626 40.3377 79.6606 40.5837C79.5646 40.8297 79.5166 41.1027 79.5166 41.4027C79.5166 41.6967 79.5646 41.9697 79.6606 42.2217C79.7626 42.4677 79.9006 42.6807 80.0746 42.8607C80.2546 43.0407 80.4646 43.1787 80.7046 43.2747C80.9446 43.3707 81.2056 43.4187 81.4876 43.4187ZM88.8293 44.6607C87.9353 44.6607 87.2363 44.4117 86.7323 43.9137C86.2283 43.4157 85.9763 42.7047 85.9763 41.7807V38.2527H87.4343V41.7267C87.4343 42.3267 87.5573 42.7587 87.8033 43.0227C88.0493 43.2867 88.3943 43.4187 88.8383 43.4187C89.2823 43.4187 89.6273 43.2867 89.8733 43.0227C90.1193 42.7587 90.2423 42.3267 90.2423 41.7267V38.2527H91.6823V41.7807C91.6823 42.7047 91.4303 43.4157 90.9263 43.9137C90.4223 44.4117 89.7233 44.6607 88.8293 44.6607ZM93.1231 44.5527V38.2527H95.8501C96.4141 38.2527 96.9001 38.3457 97.3081 38.5317C97.7161 38.7117 98.0311 38.9727 98.2531 39.3147C98.4751 39.6567 98.5861 40.0647 98.5861 40.5387C98.5861 41.0067 98.4751 41.4117 98.2531 41.7537C98.0311 42.0897 97.7161 42.3477 97.3081 42.5277C96.9001 42.7077 96.4141 42.7977 95.8501 42.7977H93.9331L94.5811 42.1587V44.5527H93.1231ZM97.1281 44.5527L95.5531 42.2667H97.1101L98.7031 44.5527H97.1281ZM94.5811 42.3207L93.9331 41.6367H95.7691C96.2191 41.6367 96.5551 41.5407 96.7771 41.3487C96.9991 41.1507 97.1101 40.8807 97.1101 40.5387C97.1101 40.1907 96.9991 39.9207 96.7771 39.7287C96.5551 39.5367 96.2191 39.4407 95.7691 39.4407H93.9331L94.5811 38.7477V42.3207ZM103.595 44.5527V39.4407H101.579V38.2527H107.069V39.4407H105.053V44.5527H103.595ZM106.709 44.5527L109.517 38.2527H110.957L113.774 44.5527H112.244L109.94 38.9907H110.516L108.203 44.5527H106.709ZM108.113 43.2027L108.5 42.0957H111.74L112.136 43.2027H108.113ZM117.382 44.6607C116.884 44.6607 116.425 44.5827 116.005 44.4267C115.591 44.2647 115.228 44.0367 114.916 43.7427C114.61 43.4487 114.37 43.1037 114.196 42.7077C114.028 42.3117 113.944 41.8767 113.944 41.4027C113.944 40.9287 114.028 40.4937 114.196 40.0977C114.37 39.7017 114.613 39.3567 114.925 39.0627C115.237 38.7687 115.603 38.5437 116.023 38.3877C116.443 38.2257 116.905 38.1447 117.409 38.1447C117.967 38.1447 118.468 38.2377 118.912 38.4237C119.362 38.6097 119.74 38.8797 120.046 39.2337L119.11 40.0977C118.882 39.8577 118.633 39.6807 118.363 39.5667C118.093 39.4467 117.799 39.3867 117.481 39.3867C117.175 39.3867 116.896 39.4347 116.644 39.5307C116.392 39.6267 116.173 39.7647 115.987 39.9447C115.807 40.1247 115.666 40.3377 115.564 40.5837C115.468 40.8297 115.42 41.1027 115.42 41.4027C115.42 41.6967 115.468 41.9667 115.564 42.2127C115.666 42.4587 115.807 42.6747 115.987 42.8607C116.173 43.0407 116.389 43.1787 116.635 43.2747C116.887 43.3707 117.163 43.4187 117.463 43.4187C117.751 43.4187 118.03 43.3737 118.3 43.2837C118.576 43.1877 118.843 43.0287 119.101 42.8067L119.929 43.8597C119.587 44.1177 119.188 44.3157 118.732 44.4537C118.282 44.5917 117.832 44.6607 117.382 44.6607ZM118.597 43.6707V41.3037H119.929V43.8597L118.597 43.6707ZM121.283 44.5527V38.2527H122.741V43.3647H125.9V44.5527H121.283ZM126.715 44.5527V38.2527H128.173V44.5527H126.715ZM129.668 44.5527V38.2527H130.874L134.591 42.7887H134.006V38.2527H135.446V44.5527H134.249L130.523 40.0167H131.108V44.5527H129.668ZM138.278 40.7907H141.311V41.9247H138.278V40.7907ZM138.386 43.3827H141.815V44.5527H136.937V38.2527H141.698V39.4227H138.386V43.3827ZM148.565 44.6607C148.067 44.6607 147.608 44.5827 147.188 44.4267C146.774 44.2647 146.411 44.0367 146.099 43.7427C145.793 43.4487 145.553 43.1037 145.379 42.7077C145.211 42.3117 145.127 41.8767 145.127 41.4027C145.127 40.9287 145.211 40.4937 145.379 40.0977C145.553 39.7017 145.796 39.3567 146.108 39.0627C146.42 38.7687 146.786 38.5437 147.206 38.3877C147.626 38.2257 148.088 38.1447 148.592 38.1447C149.15 38.1447 149.651 38.2377 150.095 38.4237C150.545 38.6097 150.923 38.8797 151.229 39.2337L150.293 40.0977C150.065 39.8577 149.816 39.6807 149.546 39.5667C149.276 39.4467 148.982 39.3867 148.664 39.3867C148.358 39.3867 148.079 39.4347 147.827 39.5307C147.575 39.6267 147.356 39.7647 147.17 39.9447C146.99 40.1247 146.849 40.3377 146.747 40.5837C146.651 40.8297 146.603 41.1027 146.603 41.4027C146.603 41.6967 146.651 41.9667 146.747 42.2127C146.849 42.4587 146.99 42.6747 147.17 42.8607C147.356 43.0407 147.572 43.1787 147.818 43.2747C148.07 43.3707 148.346 43.4187 148.646 43.4187C148.934 43.4187 149.213 43.3737 149.483 43.2837C149.759 43.1877 150.026 43.0287 150.284 42.8067L151.112 43.8597C150.77 44.1177 150.371 44.3157 149.915 44.4537C149.465 44.5917 149.015 44.6607 148.565 44.6607ZM149.78 43.6707V41.3037H151.112V43.8597L149.78 43.6707ZM155.527 44.6607C155.029 44.6607 154.567 44.5797 154.141 44.4177C153.721 44.2557 153.355 44.0277 153.043 43.7337C152.737 43.4397 152.497 43.0947 152.323 42.6987C152.155 42.3027 152.071 41.8707 152.071 41.4027C152.071 40.9347 152.155 40.5027 152.323 40.1067C152.497 39.7107 152.74 39.3657 153.052 39.0717C153.364 38.7777 153.73 38.5497 154.15 38.3877C154.57 38.2257 155.026 38.1447 155.518 38.1447C156.016 38.1447 156.472 38.2257 156.886 38.3877C157.306 38.5497 157.669 38.7777 157.975 39.0717C158.287 39.3657 158.53 39.7107 158.704 40.1067C158.878 40.4967 158.965 40.9287 158.965 41.4027C158.965 41.8707 158.878 42.3057 158.704 42.7077C158.53 43.1037 158.287 43.4487 157.975 43.7427C157.669 44.0307 157.306 44.2557 156.886 44.4177C156.472 44.5797 156.019 44.6607 155.527 44.6607ZM155.518 43.4187C155.8 43.4187 156.058 43.3707 156.292 43.2747C156.532 43.1787 156.742 43.0407 156.922 42.8607C157.102 42.6807 157.24 42.4677 157.336 42.2217C157.438 41.9757 157.489 41.7027 157.489 41.4027C157.489 41.1027 157.438 40.8297 157.336 40.5837C157.24 40.3377 157.102 40.1247 156.922 39.9447C156.748 39.7647 156.541 39.6267 156.301 39.5307C156.061 39.4347 155.8 39.3867 155.518 39.3867C155.236 39.3867 154.975 39.4347 154.735 39.5307C154.501 39.6267 154.294 39.7647 154.114 39.9447C153.934 40.1247 153.793 40.3377 153.691 40.5837C153.595 40.8297 153.547 41.1027 153.547 41.4027C153.547 41.6967 153.595 41.9697 153.691 42.2217C153.793 42.4677 153.931 42.6807 154.105 42.8607C154.285 43.0407 154.495 43.1787 154.735 43.2747C154.975 43.3707 155.236 43.4187 155.518 43.4187ZM161.402 40.7907H164.435V41.9247H161.402V40.7907ZM161.51 43.3827H164.939V44.5527H160.061V38.2527H164.822V39.4227H161.51V43.3827ZM168.169 44.6607C167.665 44.6607 167.182 44.5947 166.72 44.4627C166.258 44.3247 165.886 44.1477 165.604 43.9317L166.099 42.8337C166.369 43.0257 166.687 43.1847 167.053 43.3107C167.425 43.4307 167.8 43.4907 168.178 43.4907C168.466 43.4907 168.697 43.4637 168.871 43.4097C169.051 43.3497 169.183 43.2687 169.267 43.1667C169.351 43.0647 169.393 42.9477 169.393 42.8157C169.393 42.6477 169.327 42.5157 169.195 42.4197C169.063 42.3177 168.889 42.2367 168.673 42.1767C168.457 42.1107 168.217 42.0507 167.953 41.9967C167.695 41.9367 167.434 41.8647 167.17 41.7807C166.912 41.6967 166.675 41.5887 166.459 41.4567C166.243 41.3247 166.066 41.1507 165.928 40.9347C165.796 40.7187 165.73 40.4427 165.73 40.1067C165.73 39.7467 165.826 39.4197 166.018 39.1257C166.216 38.8257 166.51 38.5887 166.9 38.4147C167.296 38.2347 167.791 38.1447 168.385 38.1447C168.781 38.1447 169.171 38.1927 169.555 38.2887C169.939 38.3787 170.278 38.5167 170.572 38.7027L170.122 39.8097C169.828 39.6417 169.534 39.5187 169.24 39.4407C168.946 39.3567 168.658 39.3147 168.376 39.3147C168.094 39.3147 167.863 39.3477 167.683 39.4137C167.503 39.4797 167.374 39.5667 167.296 39.6747C167.218 39.7767 167.179 39.8967 167.179 40.0347C167.179 40.1967 167.245 40.3287 167.377 40.4307C167.509 40.5267 167.683 40.6047 167.899 40.6647C168.115 40.7247 168.352 40.7847 168.61 40.8447C168.874 40.9047 169.135 40.9737 169.393 41.0517C169.657 41.1297 169.897 41.2347 170.113 41.3667C170.329 41.4987 170.503 41.6727 170.635 41.8887C170.773 42.1047 170.842 42.3777 170.842 42.7077C170.842 43.0617 170.743 43.3857 170.545 43.6797C170.347 43.9737 170.05 44.2107 169.654 44.3907C169.264 44.5707 168.769 44.6607 168.169 44.6607ZM178.707 38.2527H180.165V44.5527H178.707V38.2527ZM175.845 44.5527H174.387V38.2527H175.845V44.5527ZM178.815 41.9697H175.737V40.7367H178.815V41.9697ZM182.996 40.7907H186.029V41.9247H182.996V40.7907ZM183.104 43.3827H186.533V44.5527H181.655V38.2527H186.416V39.4227H183.104V43.3827ZM187.693 44.5527V38.2527H190.42C190.984 38.2527 191.47 38.3457 191.878 38.5317C192.286 38.7117 192.601 38.9727 192.823 39.3147C193.045 39.6567 193.156 40.0647 193.156 40.5387C193.156 41.0067 193.045 41.4117 192.823 41.7537C192.601 42.0897 192.286 42.3477 191.878 42.5277C191.47 42.7077 190.984 42.7977 190.42 42.7977H188.503L189.151 42.1587V44.5527H187.693ZM191.698 44.5527L190.123 42.2667H191.68L193.273 44.5527H191.698ZM189.151 42.3207L188.503 41.6367H190.339C190.789 41.6367 191.125 41.5407 191.347 41.3487C191.569 41.1507 191.68 40.8807 191.68 40.5387C191.68 40.1907 191.569 39.9207 191.347 39.7287C191.125 39.5367 190.789 39.4407 190.339 39.4407H188.503L189.151 38.7477V42.3207ZM195.653 40.7907H198.686V41.9247H195.653V40.7907ZM195.761 43.3827H199.19V44.5527H194.312V38.2527H199.073V39.4227H195.761V43.3827Z" fill="#3366FF"/>
</g>
<path d="M1.56379 28.6318C1.9192 28.916 2.2746 29.2002 2.63001 29.4844C2.98542 29.7686 3.41192 29.9817 3.76733 30.2659C4.19382 30.5501 4.6203 30.7633 5.04679 30.9764C5.47328 31.1895 5.89979 31.4027 6.39736 31.6158C7.32143 31.9711 8.31655 32.3263 9.3117 32.4684C10.3068 32.6815 11.3731 32.7526 12.4393 32.7526C13.5055 32.7526 14.5718 32.6105 15.5669 32.3973C15.9223 32.3263 16.2066 32.2552 16.491 32.1132C15.7091 30.5501 15.2826 28.845 15.2826 26.9978C15.2826 24.1559 16.2777 21.5982 17.9126 19.6089C17.5572 19.0405 17.2018 18.4721 16.8464 17.9038C16.2066 16.767 15.7091 15.5592 15.2826 14.2093C14.8561 12.8594 14.5718 11.4385 14.4296 10.0175C14.2874 8.5966 14.2874 7.10462 14.4296 5.68368C14.5007 4.97321 14.6428 4.26274 14.785 3.55227C14.8561 3.33912 14.8561 3.12598 14.9272 2.91284C6.11304 7.31776 0 16.4828 0 27.0688C0 27.1399 0 27.282 0 27.353C0.497573 27.7082 0.995132 28.1345 1.56379 28.6318Z" fill="#3366FF"/>
<path d="M26.727 0C26.5849 0.142094 26.3716 0.284186 26.2295 0.497327C25.6608 1.0657 25.0922 1.70513 24.5235 2.34455C24.2392 2.69978 23.9549 3.05502 23.6705 3.41025C23.3862 3.76549 23.1729 4.19177 22.8886 4.54701C22.6043 4.97329 22.391 5.39957 22.1778 5.82585C21.9646 6.25213 21.7513 6.67842 21.5381 7.17574C21.1827 8.09935 20.8272 9.09401 20.6851 10.0887C20.4718 11.0833 20.4008 12.149 20.4008 13.2147C20.4008 14.2804 20.5429 15.3461 20.7562 16.3408C20.8272 16.5539 20.8983 16.7671 20.8983 16.9802C22.6754 15.9145 24.7368 15.2751 26.9403 15.2751C29.8546 15.2751 32.5557 16.3408 34.546 18.117C34.7593 17.9749 34.9725 17.8328 35.2569 17.6907C36.3942 17.0513 37.6026 16.5539 38.9531 16.1277C40.3037 15.7014 41.7253 15.4172 43.1469 15.2751C44.5686 15.133 46.0613 15.133 47.4829 15.2751C48.1938 15.3461 48.9046 15.4882 49.6154 15.6303C50.2551 15.7724 50.9659 15.9145 51.6057 16.1277C47.4118 6.67841 37.958 0.0710459 26.8692 0.0710459C26.9403 -1.08515e-06 26.8692 0 26.727 0Z" fill="#3366FF"/>
<path d="M26.1588 53.4983C26.7275 52.93 27.2961 52.2905 27.8648 51.6511C28.1491 51.2959 28.4334 50.9406 28.7178 50.5854C29.0021 50.2302 29.2153 49.8039 29.4997 49.4487C29.784 49.0224 29.9972 48.5961 30.2105 48.1698C30.4237 47.7435 30.637 47.3172 30.8502 46.8199C31.2056 45.8963 31.561 44.9016 31.7032 43.907C31.9164 42.9123 31.9875 41.8466 31.9875 40.7809C31.9875 39.7863 31.8454 38.7916 31.6321 37.7969C30.2105 38.3653 28.6467 38.7206 27.0829 38.7206C23.8131 38.7206 20.8988 37.3707 18.7663 35.3103C18.2687 35.6655 17.7001 36.0208 17.1314 36.305C15.9941 36.9444 14.7857 37.4417 13.4352 37.868C12.0846 38.2943 10.663 38.5785 9.24136 38.7206C7.81972 38.8627 6.327 38.8627 4.90536 38.7206C4.19455 38.6495 3.48373 38.5074 2.77291 38.3653C2.70183 38.3653 2.70182 38.3653 2.63074 38.3653C6.75348 47.1751 15.4965 53.4273 25.8034 53.9957C25.8034 53.7825 25.9456 53.6404 26.1588 53.4983Z" fill="#3366FF"/>
<path d="M53.5246 27.8503C53.2402 27.5661 53.027 27.353 52.7427 27.0688C52.174 26.5004 51.5343 25.932 50.8945 25.3636C50.5391 25.0795 50.1837 24.7953 49.8283 24.5111C49.4729 24.2269 49.0464 24.0138 48.691 23.7296C48.2645 23.4454 47.838 23.2322 47.4115 23.0191C46.985 22.806 46.5585 22.5928 46.061 22.3797C45.1369 22.0244 44.1418 21.6692 43.1466 21.5271C42.1515 21.314 41.0852 21.2429 40.019 21.2429C39.166 21.2429 38.313 21.385 37.389 21.5271C38.242 23.1612 38.7396 25.0084 38.7396 26.9977C38.7396 30.3369 37.3179 33.3209 35.1144 35.4523C35.2565 35.6655 35.3987 35.8786 35.4698 36.0917C36.1095 37.2285 36.6071 38.4363 37.0336 39.7862C37.4601 41.1361 37.7444 42.557 37.8866 43.978C38.0287 45.3989 38.0287 46.8909 37.8866 48.3118C37.8155 49.0223 37.6733 49.7328 37.5312 50.4432C37.389 50.9406 37.3179 51.4379 37.1757 51.9352C46.6296 48.0987 53.3824 39.0757 53.88 28.3476C53.8089 28.2055 53.6667 28.0634 53.5246 27.8503Z" fill="#3366FF"/>
<path d="M27.0115 31.1895C29.3669 31.1895 31.2764 29.2809 31.2764 26.9266C31.2764 24.5723 29.3669 22.6638 27.0115 22.6638C24.656 22.6638 22.7466 24.5723 22.7466 26.9266C22.7466 29.2809 24.656 31.1895 27.0115 31.1895Z" fill="#3366FF"/>
</svg>
