<svg width="163" height="44" viewBox="0 0 163 44" fill="none" xmlns="http://www.w3.org/2000/svg">
<g clip-path="url(#clip0_1_1714)">
<path d="M38.4119 6.39565C35.0934 2.93683 29.3897 1.23706 21.0104 1.23706C12.6312 1.23706 6.92746 2.91706 3.60895 6.39565C1.1408 8.9453 0.0415378 12.4634 0.290427 16.8512C0.560056 21.4168 1.43117 25.7453 2.90376 29.7378C4.06524 32.9199 5.57932 35.8253 7.38376 38.3552C9.45783 41.2606 11.4489 42.7429 13.3156 42.7429C14.3941 42.7429 15.9289 42.2291 17.0904 39.7782C18.3971 37.0309 19.8075 35.4498 20.9897 35.4498C22.1719 35.4498 23.5823 37.0309 24.8889 39.7782C26.0504 42.2291 27.5852 42.7429 28.6638 42.7429C30.5304 42.7429 32.5215 41.2606 34.5956 38.3552C36.4001 35.8253 37.9141 32.9199 39.0964 29.718C40.5689 25.7255 41.4401 21.3971 41.7097 16.8314C41.9586 12.4634 40.8593 8.9453 38.4119 6.39565ZM21.0104 3.07518C23.5823 3.07518 25.8845 3.2333 27.9171 3.5693C31.4223 4.61683 33.8075 6.33635 34.1601 8.07565C34.3467 8.98483 33.9319 9.85447 32.9156 10.6648C32.003 11.3961 30.9452 11.7519 29.6386 11.7519C27.1704 11.7519 24.3082 10.5265 21.2593 9.24177C18.9364 8.25353 16.5304 7.24553 14.2282 6.77118C12.9838 6.534 11.7808 6.39565 10.6193 6.39565C8.37931 6.39565 6.3882 6.88977 4.79117 7.81871C4.83265 7.77918 4.89487 7.71988 4.93635 7.66059C7.90228 4.5773 13.1497 3.07518 21.0104 3.07518ZM15.4312 39.0074C14.8297 40.2724 14.1245 40.9246 13.3364 40.9246C12.1749 40.9246 10.5571 39.6201 8.91858 37.3274C4.37635 30.7853 2.73783 22.0295 5.1645 17.4046C5.89043 16.0211 7.19709 15.1909 8.66969 15.1909C10.3912 15.1909 13.2326 16.2582 16.9038 21.2982C19.6001 24.9745 20.9482 29.0065 22.2341 32.9001C22.3586 33.2756 22.483 33.6709 22.6075 34.0465C22.0682 33.7698 21.5289 33.6314 20.9689 33.6314C18.9986 33.6314 17.1112 35.4498 15.4312 39.0074ZM39.843 16.7524C39.2208 27.2672 35.3423 34.1453 33.0815 37.3274C31.443 39.6201 29.8252 40.9246 28.6638 40.9246C27.8756 40.9246 27.1704 40.2724 26.5689 39.0074C26.5275 38.9086 26.486 38.8295 26.4445 38.7307C25.4904 36.774 24.7852 34.6196 24.0178 32.3269C22.6697 28.2949 21.2801 24.1246 18.4178 20.2309C14.2697 14.5585 10.8267 13.3726 8.66969 13.3726C6.49191 13.3726 4.56302 14.5585 3.52598 16.5745C3.00746 17.5232 2.65487 18.63 2.44746 19.8554C2.32302 18.8672 2.21932 17.8394 2.15709 16.7721C2.11561 14.0644 2.86228 11.9495 4.35561 10.4672C5.80746 9.00459 7.98524 8.23377 10.6193 8.23377C11.6356 8.23377 12.7349 8.35235 13.8549 8.58953C15.9704 9.00459 18.2726 9.99283 20.5126 10.9415C23.603 12.246 26.7971 13.59 29.6386 13.59C31.3601 13.59 32.8534 13.0959 34.0978 12.0879C35.6326 10.8427 36.2964 9.30106 35.9852 7.71988C35.8815 7.22577 35.6741 6.73165 35.3838 6.23753C36.006 6.67236 36.566 7.12694 37.0638 7.64083C39.1586 9.85447 40.0712 12.8389 39.843 16.7524Z" fill="url(#paint0_linear_1_1714)" stroke="url(#paint1_linear_1_1714)" stroke-width="0.25" stroke-miterlimit="10"/>
</g>
<path d="M59.328 23.264C58.1693 23.264 57.0913 23.0513 56.094 22.626C55.1113 22.2007 54.2533 21.614 53.52 20.866C52.8013 20.1033 52.2367 19.2087 51.826 18.182C51.4153 17.1553 51.21 16.026 51.21 14.794C51.21 13.5767 51.408 12.4547 51.804 11.428C52.2147 10.3867 52.7867 9.492 53.52 8.744C54.2533 7.98133 55.1113 7.39467 56.094 6.984C57.0767 6.55867 58.1547 6.346 59.328 6.346C60.4867 6.346 61.5207 6.544 62.43 6.94C63.354 7.336 64.1313 7.85667 64.762 8.502C65.3927 9.13267 65.8473 9.822 66.126 10.57L63.794 11.67C63.442 10.79 62.8773 10.0787 62.1 9.536C61.3373 8.97867 60.4133 8.7 59.328 8.7C58.2427 8.7 57.282 8.95667 56.446 9.47C55.61 9.98333 54.9573 10.6947 54.488 11.604C54.0333 12.5133 53.806 13.5767 53.806 14.794C53.806 16.0113 54.0333 17.082 54.488 18.006C54.9573 18.9153 55.61 19.6267 56.446 20.14C57.282 20.6387 58.2427 20.888 59.328 20.888C60.4133 20.888 61.3373 20.6167 62.1 20.074C62.8773 19.5313 63.442 18.82 63.794 17.94L66.126 19.04C65.8473 19.7733 65.3927 20.4627 64.762 21.108C64.1313 21.7533 63.354 22.274 62.43 22.67C61.5207 23.066 60.4867 23.264 59.328 23.264ZM74.5207 23.264C73.3767 23.264 72.3281 22.9927 71.3747 22.45C70.4361 21.9073 69.6881 21.1667 69.1307 20.228C68.5734 19.2893 68.2947 18.226 68.2947 17.038C68.2947 15.8353 68.5734 14.772 69.1307 13.848C69.6881 12.9093 70.4361 12.176 71.3747 11.648C72.3134 11.1053 73.3621 10.834 74.5207 10.834C75.6941 10.834 76.7427 11.1053 77.6667 11.648C78.6054 12.176 79.3461 12.9093 79.8887 13.848C80.4461 14.772 80.7247 15.8353 80.7247 17.038C80.7247 18.2407 80.4461 19.3113 79.8887 20.25C79.3314 21.1887 78.5834 21.9293 77.6447 22.472C76.7061 23 75.6647 23.264 74.5207 23.264ZM74.5207 20.954C75.2247 20.954 75.8481 20.7853 76.3907 20.448C76.9334 20.1107 77.3587 19.6487 77.6667 19.062C77.9894 18.4607 78.1507 17.786 78.1507 17.038C78.1507 16.29 77.9894 15.6227 77.6667 15.036C77.3587 14.4493 76.9334 13.9873 76.3907 13.65C75.8481 13.3127 75.2247 13.144 74.5207 13.144C73.8314 13.144 73.2081 13.3127 72.6507 13.65C72.1081 13.9873 71.6754 14.4493 71.3527 15.036C71.0447 15.6227 70.8907 16.29 70.8907 17.038C70.8907 17.786 71.0447 18.4607 71.3527 19.062C71.6754 19.6487 72.1081 20.1107 72.6507 20.448C73.2081 20.7853 73.8314 20.954 74.5207 20.954ZM83.5918 23V11.098H85.9678V13.43L85.6818 13.122C85.9751 12.374 86.4444 11.8093 87.0898 11.428C87.7351 11.032 88.4831 10.834 89.3338 10.834C90.2138 10.834 90.9911 11.0247 91.6658 11.406C92.3404 11.7873 92.8684 12.3153 93.2498 12.99C93.6311 13.6647 93.8218 14.442 93.8218 15.322V23H91.3578V15.982C91.3578 15.3807 91.2478 14.8747 91.0278 14.464C90.8078 14.0387 90.4924 13.716 90.0818 13.496C89.6858 13.2613 89.2311 13.144 88.7178 13.144C88.2044 13.144 87.7424 13.2613 87.3318 13.496C86.9358 13.716 86.6278 14.0387 86.4078 14.464C86.1878 14.8893 86.0778 15.3953 86.0778 15.982V23H83.5918ZM98.2644 23V13.342H96.0644V11.098H98.2644V10.482C98.2644 9.58733 98.4477 8.83933 98.8144 8.238C99.1811 7.622 99.6871 7.15267 100.332 6.83C100.992 6.50733 101.748 6.346 102.598 6.346C102.76 6.346 102.943 6.36067 103.148 6.39C103.354 6.40467 103.522 6.42667 103.654 6.456V8.612C103.537 8.58267 103.405 8.568 103.258 8.568C103.112 8.55333 102.994 8.546 102.906 8.546C102.246 8.546 101.718 8.7 101.322 9.008C100.926 9.30133 100.728 9.79267 100.728 10.482V11.098H106.426V13.342H100.728V23H98.2644ZM105.26 23V11.098H107.724V23H105.26ZM116.29 23.264C115.146 23.264 114.119 22.9927 113.21 22.45C112.315 21.8927 111.604 21.1447 111.076 20.206C110.563 19.2673 110.306 18.2113 110.306 17.038C110.306 15.8647 110.57 14.8087 111.098 13.87C111.626 12.9313 112.337 12.1907 113.232 11.648C114.127 11.1053 115.139 10.834 116.268 10.834C117.221 10.834 118.065 11.0247 118.798 11.406C119.531 11.7873 120.111 12.3153 120.536 12.99L120.162 13.562V6.346H122.626V23H120.272V20.58L120.558 21.042C120.147 21.7607 119.561 22.3107 118.798 22.692C118.035 23.0733 117.199 23.264 116.29 23.264ZM116.532 20.954C117.221 20.954 117.837 20.7853 118.38 20.448C118.937 20.1107 119.37 19.6487 119.678 19.062C120.001 18.4607 120.162 17.786 120.162 17.038C120.162 16.29 120.001 15.6227 119.678 15.036C119.37 14.4493 118.937 13.9873 118.38 13.65C117.837 13.3127 117.221 13.144 116.532 13.144C115.843 13.144 115.219 13.3127 114.662 13.65C114.105 13.9873 113.672 14.4493 113.364 15.036C113.056 15.6227 112.902 16.29 112.902 17.038C112.902 17.786 113.056 18.4607 113.364 19.062C113.672 19.6487 114.097 20.1107 114.64 20.448C115.197 20.7853 115.828 20.954 116.532 20.954ZM131.556 23.264C130.368 23.264 129.312 22.9927 128.388 22.45C127.479 21.8927 126.768 21.1447 126.254 20.206C125.741 19.2527 125.484 18.1893 125.484 17.016C125.484 15.8133 125.741 14.75 126.254 13.826C126.782 12.902 127.486 12.176 128.366 11.648C129.246 11.1053 130.244 10.834 131.358 10.834C132.253 10.834 133.052 10.988 133.756 11.296C134.46 11.604 135.054 12.0293 135.538 12.572C136.022 13.1 136.389 13.7087 136.638 14.398C136.902 15.0873 137.034 15.8207 137.034 16.598C137.034 16.7887 137.027 16.9867 137.012 17.192C136.998 17.3973 136.968 17.588 136.924 17.764H127.442V15.784H135.516L134.328 16.686C134.475 15.9673 134.424 15.3293 134.174 14.772C133.94 14.2 133.573 13.7527 133.074 13.43C132.59 13.0927 132.018 12.924 131.358 12.924C130.698 12.924 130.112 13.0927 129.598 13.43C129.085 13.7527 128.689 14.222 128.41 14.838C128.132 15.4393 128.022 16.1727 128.08 17.038C128.007 17.8447 128.117 18.5487 128.41 19.15C128.718 19.7513 129.144 20.2207 129.686 20.558C130.244 20.8953 130.874 21.064 131.578 21.064C132.297 21.064 132.906 20.9027 133.404 20.58C133.918 20.2573 134.321 19.8393 134.614 19.326L136.638 20.316C136.404 20.8733 136.037 21.3793 135.538 21.834C135.054 22.274 134.468 22.626 133.778 22.89C133.104 23.1393 132.363 23.264 131.556 23.264ZM139.901 23V11.098H142.277V13.43L141.991 13.122C142.284 12.374 142.753 11.8093 143.399 11.428C144.044 11.032 144.792 10.834 145.643 10.834C146.523 10.834 147.3 11.0247 147.975 11.406C148.649 11.7873 149.177 12.3153 149.559 12.99C149.94 13.6647 150.131 14.442 150.131 15.322V23H147.667V15.982C147.667 15.3807 147.557 14.8747 147.337 14.464C147.117 14.0387 146.801 13.716 146.391 13.496C145.995 13.2613 145.54 13.144 145.027 13.144C144.513 13.144 144.051 13.2613 143.641 13.496C143.245 13.716 142.937 14.0387 142.717 14.464C142.497 14.8893 142.387 15.3953 142.387 15.982V23H139.901ZM158.379 23.132C157.133 23.132 156.165 22.78 155.475 22.076C154.786 21.372 154.441 20.382 154.441 19.106V13.342H152.351V11.098H152.681C153.239 11.098 153.671 10.9367 153.979 10.614C154.287 10.2913 154.441 9.85133 154.441 9.294V8.37H156.927V11.098H159.633V13.342H156.927V18.996C156.927 19.4067 156.993 19.7587 157.125 20.052C157.257 20.3307 157.47 20.5507 157.763 20.712C158.057 20.8587 158.438 20.932 158.907 20.932C159.025 20.932 159.157 20.9247 159.303 20.91C159.45 20.8953 159.589 20.8807 159.721 20.866V23C159.516 23.0293 159.289 23.0587 159.039 23.088C158.79 23.1173 158.57 23.132 158.379 23.132Z" fill="#2952CE"/>
<path d="M50.852 40V31.6H53.576C54.56 31.6 55.368 31.772 56 32.116C56.64 32.46 57.112 32.948 57.416 33.58C57.728 34.204 57.884 34.948 57.884 35.812C57.884 36.668 57.728 37.412 57.416 38.044C57.112 38.668 56.64 39.152 56 39.496C55.368 39.832 54.56 40 53.576 40H50.852ZM52.124 38.92H53.528C54.288 38.92 54.888 38.796 55.328 38.548C55.776 38.3 56.096 37.944 56.288 37.48C56.488 37.016 56.588 36.46 56.588 35.812C56.588 35.164 56.488 34.604 56.288 34.132C56.096 33.66 55.776 33.3 55.328 33.052C54.888 32.796 54.288 32.668 53.528 32.668H52.124V38.92ZM62.5055 40.144C61.9215 40.144 61.4015 40.016 60.9455 39.76C60.4975 39.496 60.1455 39.132 59.8895 38.668C59.6335 38.204 59.5055 37.664 59.5055 37.048C59.5055 36.424 59.6295 35.876 59.8775 35.404C60.1335 34.932 60.4855 34.564 60.9335 34.3C61.3895 34.036 61.9175 33.904 62.5175 33.904C63.1015 33.904 63.6095 34.036 64.0415 34.3C64.4735 34.556 64.8095 34.9 65.0495 35.332C65.2895 35.764 65.4095 36.24 65.4095 36.76C65.4095 36.84 65.4055 36.928 65.3975 37.024C65.3975 37.112 65.3935 37.212 65.3855 37.324H60.7535C60.7935 37.9 60.9815 38.34 61.3175 38.644C61.6615 38.94 62.0575 39.088 62.5055 39.088C62.8655 39.088 63.1655 39.008 63.4055 38.848C63.6535 38.68 63.8375 38.456 63.9575 38.176H65.2295C65.0695 38.736 64.7495 39.204 64.2695 39.58C63.7975 39.956 63.2095 40.144 62.5055 40.144ZM62.5055 34.948C62.0815 34.948 61.7055 35.076 61.3775 35.332C61.0495 35.58 60.8495 35.956 60.7775 36.46H64.1375C64.1135 35.996 63.9495 35.628 63.6455 35.356C63.3415 35.084 62.9615 34.948 62.5055 34.948ZM67.2093 40V34.048H68.3373L68.4333 35.092C68.6173 34.724 68.8853 34.436 69.2373 34.228C69.5973 34.012 70.0093 33.904 70.4733 33.904C71.1933 33.904 71.7573 34.128 72.1653 34.576C72.5813 35.024 72.7893 35.692 72.7893 36.58V40H71.5293V36.712C71.5293 35.56 71.0573 34.984 70.1133 34.984C69.6413 34.984 69.2493 35.152 68.9373 35.488C68.6333 35.824 68.4813 36.304 68.4813 36.928V40H67.2093ZM77.2634 40C76.6794 40 76.2154 39.86 75.8714 39.58C75.5274 39.292 75.3554 38.784 75.3554 38.056V35.116H74.3354V34.048H75.3554L75.5114 32.536H76.6274V34.048H78.3074V35.116H76.6274V38.056C76.6274 38.384 76.6954 38.612 76.8314 38.74C76.9754 38.86 77.2194 38.92 77.5634 38.92H78.2474V40H77.2634ZM82.115 40.144C81.611 40.144 81.195 40.06 80.867 39.892C80.539 39.724 80.295 39.504 80.135 39.232C79.975 38.952 79.895 38.648 79.895 38.32C79.895 37.744 80.119 37.288 80.567 36.952C81.015 36.616 81.655 36.448 82.487 36.448H84.047V36.34C84.047 35.876 83.919 35.528 83.663 35.296C83.415 35.064 83.091 34.948 82.691 34.948C82.339 34.948 82.031 35.036 81.767 35.212C81.511 35.38 81.355 35.632 81.299 35.968H80.027C80.067 35.536 80.211 35.168 80.459 34.864C80.715 34.552 81.035 34.316 81.419 34.156C81.811 33.988 82.239 33.904 82.703 33.904C83.535 33.904 84.179 34.124 84.635 34.564C85.091 34.996 85.319 35.588 85.319 36.34V40H84.215L84.107 38.98C83.939 39.308 83.695 39.584 83.375 39.808C83.055 40.032 82.635 40.144 82.115 40.144ZM82.367 39.112C82.711 39.112 82.999 39.032 83.231 38.872C83.471 38.704 83.655 38.484 83.783 38.212C83.919 37.94 84.003 37.64 84.035 37.312H82.619C82.115 37.312 81.755 37.4 81.539 37.576C81.331 37.752 81.227 37.972 81.227 38.236C81.227 38.508 81.327 38.724 81.527 38.884C81.735 39.036 82.015 39.112 82.367 39.112ZM87.2821 40V31.36H88.5541V40H87.2821ZM97.9404 40.144C97.1084 40.144 96.3884 39.964 95.7804 39.604C95.1804 39.236 94.7164 38.728 94.3884 38.08C94.0604 37.424 93.8964 36.668 93.8964 35.812C93.8964 34.948 94.0604 34.192 94.3884 33.544C94.7164 32.888 95.1804 32.376 95.7804 32.008C96.3884 31.64 97.1084 31.456 97.9404 31.456C98.9244 31.456 99.7284 31.696 100.352 32.176C100.976 32.656 101.372 33.328 101.54 34.192H100.124C100.012 33.704 99.7724 33.316 99.4044 33.028C99.0364 32.74 98.5444 32.596 97.9284 32.596C97.0884 32.596 96.4244 32.884 95.9364 33.46C95.4484 34.028 95.2044 34.812 95.2044 35.812C95.2044 36.804 95.4484 37.584 95.9364 38.152C96.4244 38.72 97.0884 39.004 97.9284 39.004C98.5444 39.004 99.0364 38.868 99.4044 38.596C99.7724 38.324 100.012 37.952 100.124 37.48H101.54C101.372 38.312 100.976 38.964 100.352 39.436C99.7284 39.908 98.9244 40.144 97.9404 40.144ZM105.387 40.144C104.883 40.144 104.467 40.06 104.139 39.892C103.811 39.724 103.567 39.504 103.407 39.232C103.247 38.952 103.167 38.648 103.167 38.32C103.167 37.744 103.391 37.288 103.839 36.952C104.287 36.616 104.927 36.448 105.759 36.448H107.319V36.34C107.319 35.876 107.191 35.528 106.935 35.296C106.687 35.064 106.363 34.948 105.963 34.948C105.611 34.948 105.303 35.036 105.039 35.212C104.783 35.38 104.627 35.632 104.571 35.968H103.299C103.339 35.536 103.483 35.168 103.731 34.864C103.987 34.552 104.307 34.316 104.691 34.156C105.083 33.988 105.511 33.904 105.975 33.904C106.807 33.904 107.451 34.124 107.907 34.564C108.363 34.996 108.591 35.588 108.591 36.34V40H107.487L107.379 38.98C107.211 39.308 106.967 39.584 106.647 39.808C106.327 40.032 105.907 40.144 105.387 40.144ZM105.639 39.112C105.983 39.112 106.271 39.032 106.503 38.872C106.743 38.704 106.927 38.484 107.055 38.212C107.191 37.94 107.275 37.64 107.307 37.312H105.891C105.387 37.312 105.027 37.4 104.811 37.576C104.603 37.752 104.499 37.972 104.499 38.236C104.499 38.508 104.599 38.724 104.799 38.884C105.007 39.036 105.287 39.112 105.639 39.112ZM110.554 40V34.048H111.694L111.802 35.176C112.01 34.784 112.298 34.476 112.666 34.252C113.042 34.02 113.494 33.904 114.022 33.904V35.236H113.674C113.322 35.236 113.006 35.296 112.726 35.416C112.454 35.528 112.234 35.724 112.066 36.004C111.906 36.276 111.826 36.656 111.826 37.144V40H110.554ZM118.212 40.144C117.628 40.144 117.108 40.016 116.652 39.76C116.204 39.496 115.852 39.132 115.596 38.668C115.34 38.204 115.212 37.664 115.212 37.048C115.212 36.424 115.336 35.876 115.584 35.404C115.84 34.932 116.192 34.564 116.64 34.3C117.096 34.036 117.624 33.904 118.224 33.904C118.808 33.904 119.316 34.036 119.748 34.3C120.18 34.556 120.516 34.9 120.756 35.332C120.996 35.764 121.116 36.24 121.116 36.76C121.116 36.84 121.112 36.928 121.104 37.024C121.104 37.112 121.1 37.212 121.092 37.324H116.46C116.5 37.9 116.688 38.34 117.024 38.644C117.368 38.94 117.764 39.088 118.212 39.088C118.572 39.088 118.872 39.008 119.112 38.848C119.36 38.68 119.544 38.456 119.664 38.176H120.936C120.776 38.736 120.456 39.204 119.976 39.58C119.504 39.956 118.916 40.144 118.212 40.144ZM118.212 34.948C117.788 34.948 117.412 35.076 117.084 35.332C116.756 35.58 116.556 35.956 116.484 36.46H119.844C119.82 35.996 119.656 35.628 119.352 35.356C119.048 35.084 118.668 34.948 118.212 34.948ZM130.211 40.144C129.379 40.144 128.659 39.964 128.051 39.604C127.451 39.236 126.987 38.728 126.659 38.08C126.331 37.424 126.167 36.668 126.167 35.812C126.167 34.948 126.331 34.192 126.659 33.544C126.987 32.888 127.451 32.376 128.051 32.008C128.659 31.64 129.379 31.456 130.211 31.456C131.195 31.456 131.999 31.696 132.623 32.176C133.247 32.656 133.643 33.328 133.811 34.192H132.395C132.283 33.704 132.043 33.316 131.675 33.028C131.307 32.74 130.815 32.596 130.199 32.596C129.359 32.596 128.695 32.884 128.207 33.46C127.719 34.028 127.475 34.812 127.475 35.812C127.475 36.804 127.719 37.584 128.207 38.152C128.695 38.72 129.359 39.004 130.199 39.004C130.815 39.004 131.307 38.868 131.675 38.596C132.043 38.324 132.283 37.952 132.395 37.48H133.811C133.643 38.312 133.247 38.964 132.623 39.436C131.999 39.908 131.195 40.144 130.211 40.144ZM135.642 40V31.36H136.914V40H135.642ZM139.724 32.92C139.484 32.92 139.284 32.848 139.124 32.704C138.972 32.552 138.896 32.364 138.896 32.14C138.896 31.916 138.972 31.732 139.124 31.588C139.284 31.436 139.484 31.36 139.724 31.36C139.964 31.36 140.16 31.436 140.312 31.588C140.472 31.732 140.552 31.916 140.552 32.14C140.552 32.364 140.472 32.552 140.312 32.704C140.16 32.848 139.964 32.92 139.724 32.92ZM139.088 40V34.048H140.36V40H139.088ZM142.52 40V34.048H143.648L143.744 35.092C143.928 34.724 144.196 34.436 144.548 34.228C144.908 34.012 145.32 33.904 145.784 33.904C146.504 33.904 147.068 34.128 147.476 34.576C147.892 35.024 148.1 35.692 148.1 36.58V40H146.84V36.712C146.84 35.56 146.368 34.984 145.424 34.984C144.952 34.984 144.56 35.152 144.248 35.488C143.944 35.824 143.792 36.304 143.792 36.928V40H142.52ZM150.798 32.92C150.558 32.92 150.358 32.848 150.198 32.704C150.046 32.552 149.97 32.364 149.97 32.14C149.97 31.916 150.046 31.732 150.198 31.588C150.358 31.436 150.558 31.36 150.798 31.36C151.038 31.36 151.234 31.436 151.386 31.588C151.546 31.732 151.626 31.916 151.626 32.14C151.626 32.364 151.546 32.552 151.386 32.704C151.234 32.848 151.038 32.92 150.798 32.92ZM150.162 40V34.048H151.434V40H150.162ZM156.413 40.144C155.829 40.144 155.305 40.012 154.841 39.748C154.385 39.484 154.025 39.12 153.761 38.656C153.505 38.184 153.377 37.64 153.377 37.024C153.377 36.408 153.505 35.868 153.761 35.404C154.025 34.932 154.385 34.564 154.841 34.3C155.305 34.036 155.829 33.904 156.413 33.904C157.149 33.904 157.765 34.096 158.261 34.48C158.765 34.864 159.089 35.384 159.233 36.04H157.901C157.821 35.712 157.645 35.456 157.373 35.272C157.101 35.088 156.781 34.996 156.413 34.996C156.101 34.996 155.813 35.076 155.549 35.236C155.285 35.388 155.073 35.616 154.913 35.92C154.753 36.216 154.673 36.584 154.673 37.024C154.673 37.464 154.753 37.836 154.913 38.14C155.073 38.436 155.285 38.664 155.549 38.824C155.813 38.984 156.101 39.064 156.413 39.064C156.781 39.064 157.101 38.972 157.373 38.788C157.645 38.604 157.821 38.344 157.901 38.008H159.233C159.097 38.648 158.777 39.164 158.273 39.556C157.769 39.948 157.149 40.144 156.413 40.144Z" fill="#5C85FF"/>
<defs>
<linearGradient id="paint0_linear_1_1714" x1="6.36352" y1="21.9999" x2="47.7676" y2="21.9999" gradientUnits="userSpaceOnUse">
<stop stop-color="#001C81"/>
<stop offset="1" stop-color="#3359DF"/>
</linearGradient>
<linearGradient id="paint1_linear_1_1714" x1="9.33309" y1="22.7411" x2="45.6264" y2="21.6529" gradientUnits="userSpaceOnUse">
<stop stop-color="#001C81"/>
<stop offset="1" stop-color="#3359DF"/>
</linearGradient>
<clipPath id="clip0_1_1714">
<rect width="42" height="42" fill="white" transform="translate(0 1)"/>
</clipPath>
</defs>
</svg>
