<svg width="18" height="16" viewBox="0 0 18 16" fill="none" xmlns="http://www.w3.org/2000/svg">
<path d="M8.52691 0.383232C8.68113 -0.0676906 9.31887 -0.06769 9.47309 0.383233L11.1295 5.22615C11.1987 5.42842 11.3888 5.56434 11.6026 5.56434H16.9059C17.3965 5.56434 17.5937 6.19718 17.19 6.47584L12.9443 9.40625C12.76 9.53346 12.6828 9.76768 12.7552 9.97956L14.3872 14.7511C14.5432 15.2073 14.0269 15.5983 13.6301 15.3244L9.28402 12.3247C9.11306 12.2067 8.88694 12.2067 8.71598 12.3247L4.3699 15.3244C3.97311 15.5983 3.45676 15.2073 3.61279 14.7511L5.24476 9.97956C5.31723 9.76768 5.23998 9.53346 5.05569 9.40625L0.810034 6.47584C0.406314 6.19718 0.603509 5.56434 1.09406 5.56434H6.39743C6.61122 5.56434 6.80135 5.42842 6.87053 5.22615L8.52691 0.383232Z" fill="#FF9140"/>
</svg>
