<svg width="108" height="108" viewBox="0 0 108 108" fill="none" xmlns="http://www.w3.org/2000/svg">
<g filter="url(#filter0_d_2_1951)">
<rect x="11" y="11" width="86" height="86" rx="6" fill="#FEF5D8"/>
</g>
<path d="M29.4376 64.3602V71.8015C29.4555 73.1168 29.9941 74.3713 30.9355 75.29C31.8769 76.2088 33.1442 76.7168 34.4595 76.7026H71.6643C72.9822 76.7202 74.2532 76.2139 75.1981 75.2949C76.1429 74.3759 76.6842 73.1194 76.7031 71.8015V63.5078C76.7031 66.798 74.0529 70.3268 70.7865 70.3268C68.4992 70.3268 66.5157 69.8154 65.5366 68.3749C65.4634 68.2631 65.3631 68.1716 65.2451 68.109C65.127 68.0464 64.995 68.0148 64.8614 68.0169C64.7352 68.0228 64.6122 68.0582 64.5022 68.1204C64.3922 68.1826 64.2984 68.2698 64.2284 68.3749C63.2409 69.8154 61.2574 70.3268 58.9701 70.3268C56.6828 70.3268 54.6993 69.8154 53.7203 68.3749C53.6484 68.2674 53.551 68.1792 53.437 68.1182C53.3229 68.0573 53.1955 68.0254 53.0661 68.0254C52.9368 68.0254 52.8094 68.0573 52.6953 68.1182C52.5812 68.1792 52.4839 68.2674 52.412 68.3749C51.4245 69.8154 49.441 70.3268 47.1537 70.3268C44.8664 70.3268 42.8829 69.8154 41.9039 68.3749C41.8338 68.2698 41.74 68.1826 41.6301 68.1204C41.5201 68.0582 41.397 68.0228 41.2708 68.0169C41.1372 68.0148 41.0052 68.0464 40.8872 68.109C40.7691 68.1716 40.6688 68.2631 40.5956 68.3749C39.6081 69.8154 37.6246 70.3268 35.3373 70.3268C33.764 70.317 32.259 69.683 31.1528 68.5643C30.0466 67.4456 29.4297 65.9335 29.4376 64.3602Z" stroke="#F9CD3B" stroke-width="2" stroke-linecap="round" stroke-linejoin="round"/>
<path d="M64.8613 56.8679V68.017C64.9949 68.0149 65.1269 68.0466 65.245 68.1091C65.3631 68.1717 65.4634 68.2632 65.5365 68.375C66.5156 69.8155 68.4991 70.3269 70.7864 70.3269C74.0528 70.3269 76.703 66.7981 76.703 63.5079V56.8679H64.8613Z" stroke="#F9CD3B" stroke-width="2" stroke-linecap="round" stroke-linejoin="round"/>
<path d="M53.0703 56.8679V68.0255C53.1989 68.0267 53.3252 68.0591 53.4384 68.12C53.5516 68.1809 53.6484 68.2684 53.7202 68.375C54.6993 69.8155 56.6828 70.3269 58.9701 70.3269C61.2574 70.3269 63.2408 69.8155 64.2284 68.375C64.2984 68.2699 64.3922 68.1827 64.5022 68.1205C64.6121 68.0583 64.7352 68.0229 64.8614 68.017V56.8679H53.0703Z" stroke="#F9CD3B" stroke-width="2" stroke-linecap="round" stroke-linejoin="round"/>
<path d="M41.2708 56.8679V68.017C41.397 68.0229 41.52 68.0583 41.63 68.1205C41.7399 68.1827 41.8337 68.2699 41.9038 68.375C42.8828 69.8155 44.8663 70.3269 47.1536 70.3269C49.4409 70.3269 51.4244 69.8155 52.4119 68.375C52.4841 68.2668 52.5821 68.1782 52.697 68.1172C52.8119 68.0562 52.9402 68.0247 53.0703 68.0255V56.8679H41.2708Z" stroke="#F9CD3B" stroke-width="2" stroke-linecap="round" stroke-linejoin="round"/>
<path d="M29.4376 56.8679V64.3603C29.4297 65.9336 30.0466 67.4457 31.1528 68.5644C32.259 69.6832 33.764 70.3171 35.3373 70.3269C37.6246 70.3269 39.6081 69.8155 40.5956 68.375C40.6688 68.2632 40.7691 68.1717 40.8872 68.1091C41.0052 68.0466 41.1372 68.0149 41.2708 68.017V56.8679H29.4376Z" stroke="#F9CD3B" stroke-width="2" stroke-linecap="round" stroke-linejoin="round"/>
<path d="M65.4271 29.4375H60.2217C59.9979 29.4375 59.7832 29.5264 59.6249 29.6847C59.4666 29.843 59.3777 30.0577 59.3777 30.2815V34.7466C59.3777 34.969 59.4655 35.1824 59.622 35.3404L62.9762 38.7278L66.0276 35.6462C66.1841 35.4881 66.2719 35.2747 66.2719 35.0522L66.2711 30.2814C66.2711 30.0576 66.1821 29.8429 66.0239 29.6847C65.8656 29.5264 65.6509 29.4375 65.4271 29.4375Z" stroke="#F9CD3B" stroke-width="2" stroke-linecap="round" stroke-linejoin="round"/>
<path d="M62.9761 38.7278V42.7121" stroke="#F9CD3B" stroke-width="2" stroke-linecap="round" stroke-linejoin="round"/>
<path d="M33.124 32.731L37.6066 32.9438C41.6148 33.134 45.632 32.9027 49.5919 32.2535L59.3778 30.6494" stroke="#F9CD3B" stroke-width="2" stroke-linecap="round" stroke-linejoin="round"/>
<path d="M33.124 40.1611C40.0737 40.1611 46.9655 38.8968 53.4626 36.4299L59.3778 34.1841" stroke="#F9CD3B" stroke-width="2" stroke-linecap="round" stroke-linejoin="round"/>
<path d="M48.9199 32.3596V37.9409" stroke="#F9CD3B" stroke-width="2" stroke-linecap="round" stroke-linejoin="round"/>
<path d="M60.278 42.7122H65.6744C65.8491 42.7122 66.0195 42.7664 66.1621 42.8673C66.3047 42.9682 66.4125 43.1109 66.4705 43.2757L68.4646 48.936C68.5543 49.1905 68.5817 49.4629 68.5444 49.7302C68.5071 49.9975 68.4062 50.2519 68.2503 50.4722C68.0943 50.6925 67.8878 50.8722 67.6481 50.9962C67.4084 51.1202 67.1424 51.1849 66.8725 51.1849H59.0799C58.81 51.1849 58.544 51.1202 58.3043 50.9962C58.0646 50.8722 57.8581 50.6925 57.7022 50.4722C57.5462 50.2519 57.4454 49.9975 57.408 49.7302C57.3707 49.4629 57.3981 49.1905 57.4878 48.936L59.4819 43.2757C59.5399 43.1109 59.6477 42.9682 59.7903 42.8673C59.9329 42.7664 60.1033 42.7122 60.278 42.7122Z" stroke="#F9CD3B" stroke-width="2" stroke-linecap="round" stroke-linejoin="round"/>
<defs>
<filter id="filter0_d_2_1951" x="0.9" y="0.9" width="106.2" height="106.2" filterUnits="userSpaceOnUse" color-interpolation-filters="sRGB">
<feFlood flood-opacity="0" result="BackgroundImageFix"/>
<feColorMatrix in="SourceAlpha" type="matrix" values="0 0 0 0 0 0 0 0 0 0 0 0 0 0 0 0 0 0 127 0" result="hardAlpha"/>
<feOffset/>
<feGaussianBlur stdDeviation="5.05"/>
<feComposite in2="hardAlpha" operator="out"/>
<feColorMatrix type="matrix" values="0 0 0 0 0.192157 0 0 0 0 0.466667 0 0 0 0 0.882353 0 0 0 0.16 0"/>
<feBlend mode="normal" in2="BackgroundImageFix" result="effect1_dropShadow_2_1951"/>
<feBlend mode="normal" in="SourceGraphic" in2="effect1_dropShadow_2_1951" result="shape"/>
</filter>
</defs>
</svg>
