<svg width="108" height="108" viewBox="0 0 108 108" fill="none" xmlns="http://www.w3.org/2000/svg">
<g filter="url(#filter0_d_2_1928)">
<rect x="11" y="11" width="86" height="86" rx="6" fill="#FFE9D9"/>
</g>
<path d="M41.6202 41.4534H41.8545C44.7706 41.4534 47.5673 42.7717 49.6293 45.1183C51.6913 47.4649 52.8497 50.6475 52.8497 53.9661V77.0739C52.8497 77.6344 52.654 78.1721 52.3057 78.5684C51.9574 78.9648 51.485 79.1875 50.9924 79.1875H32.4823C31.9897 79.1875 31.5173 78.9648 31.169 78.5684C30.8207 78.1721 30.625 77.6344 30.625 77.0739V53.9661C30.625 50.6475 31.7834 47.4649 33.8454 45.1183C35.9074 42.7717 38.7041 41.4534 41.6202 41.4534Z" stroke="#FF9140" stroke-width="2" stroke-linecap="round" stroke-linejoin="round"/>
<path d="M63.8448 41.4534H64.0791C66.9952 41.4534 69.7919 42.7717 71.8539 45.1183C73.9159 47.4649 75.0743 50.6475 75.0743 53.9661V77.0739C75.0743 77.6344 74.8786 78.1721 74.5303 78.5684C74.182 78.9648 73.7096 79.1875 73.217 79.1875H54.7069C54.2143 79.1875 53.7419 78.9648 53.3936 78.5684C53.0453 78.1721 52.8496 77.6344 52.8496 77.0739V53.9661C52.8496 50.6475 54.008 47.4649 56.07 45.1183C58.132 42.7717 60.9287 41.4534 63.8448 41.4534Z" stroke="#FF9140" stroke-width="2" stroke-linecap="round" stroke-linejoin="round"/>
<path d="M31.1252 50.2228H28.7423C28.4956 50.2238 28.2511 50.1692 28.0231 50.0622C27.795 49.9552 27.5877 49.7979 27.4133 49.5994C27.2388 49.4009 27.1006 49.165 27.0066 48.9055C26.9126 48.6459 26.8646 48.3677 26.8655 48.087V34.8233C26.8646 34.5426 26.9126 34.2644 27.0066 34.0048C27.1006 33.7453 27.2388 33.5094 27.4133 33.3109C27.5877 33.1124 27.795 32.9551 28.023 32.8481C28.2511 32.7411 28.4956 32.6865 28.7423 32.6875H76.9576C77.2043 32.6865 77.4488 32.7411 77.6768 32.8481C77.9049 32.9551 78.1122 33.1124 78.2866 33.3109C78.4611 33.5094 78.5993 33.7453 78.6933 34.0048C78.7873 34.2644 78.8353 34.5426 78.8344 34.8233V48.087C78.8353 48.3677 78.7873 48.6459 78.6933 48.9055C78.5993 49.165 78.4611 49.4009 78.2866 49.5994C78.1122 49.7979 77.9049 49.9552 77.6768 50.0622C77.4488 50.1692 77.2043 50.2238 76.9576 50.2228H74.5737" stroke="#FF9140" stroke-width="2" stroke-linecap="round" stroke-linejoin="round"/>
<path d="M46.7249 57.094H36.7501C35.7244 57.094 34.8928 58.0403 34.8928 59.2076V65.2112C34.8928 66.3785 35.7244 67.3248 36.7501 67.3248H46.7249C47.7507 67.3248 48.5822 66.3785 48.5822 65.2112V59.2076C48.5822 58.0403 47.7507 57.094 46.7249 57.094Z" stroke="#FF9140" stroke-width="2" stroke-linecap="round" stroke-linejoin="round"/>
<path d="M68.9493 57.094H58.9745C57.9487 57.094 57.1172 58.0403 57.1172 59.2076V65.2112C57.1172 66.3785 57.9487 67.3248 58.9745 67.3248H68.9493C69.975 67.3248 70.8066 66.3785 70.8066 65.2112V59.2076C70.8066 58.0403 69.975 57.094 68.9493 57.094Z" stroke="#FF9140" stroke-width="2" stroke-linecap="round" stroke-linejoin="round"/>
<path d="M26.209 62.2095H34.8926" stroke="#FF9140" stroke-width="2" stroke-linecap="round" stroke-linejoin="round"/>
<path d="M70.8064 62.2095H79.49" stroke="#FF9140" stroke-width="2" stroke-linecap="round" stroke-linejoin="round"/>
<path d="M48.582 62.2095H57.1173" stroke="#FF9140" stroke-width="2" stroke-linecap="round" stroke-linejoin="round"/>
<path d="M41.7373 60.1804V64.2383" stroke="#FF9140" stroke-width="2" stroke-linecap="round" stroke-linejoin="round"/>
<path d="M39.9126 62.2095H43.5616" stroke="#FF9140" stroke-width="2" stroke-linecap="round" stroke-linejoin="round"/>
<path d="M63.9619 60.2629V64.3208" stroke="#FF9140" stroke-width="2" stroke-linecap="round" stroke-linejoin="round"/>
<path d="M62.1375 62.292H65.7864" stroke="#FF9140" stroke-width="2" stroke-linecap="round" stroke-linejoin="round"/>
<defs>
<filter id="filter0_d_2_1928" x="0.9" y="0.9" width="106.2" height="106.2" filterUnits="userSpaceOnUse" color-interpolation-filters="sRGB">
<feFlood flood-opacity="0" result="BackgroundImageFix"/>
<feColorMatrix in="SourceAlpha" type="matrix" values="0 0 0 0 0 0 0 0 0 0 0 0 0 0 0 0 0 0 127 0" result="hardAlpha"/>
<feOffset/>
<feGaussianBlur stdDeviation="5.05"/>
<feComposite in2="hardAlpha" operator="out"/>
<feColorMatrix type="matrix" values="0 0 0 0 0.192157 0 0 0 0 0.466667 0 0 0 0 0.882353 0 0 0 0.16 0"/>
<feBlend mode="normal" in2="BackgroundImageFix" result="effect1_dropShadow_2_1928"/>
<feBlend mode="normal" in="SourceGraphic" in2="effect1_dropShadow_2_1928" result="shape"/>
</filter>
</defs>
</svg>
