<svg width="200" height="54" viewBox="0 0 200 54" fill="none" xmlns="http://www.w3.org/2000/svg">
<path d="M76.4639 28.6997V18.4757H72.4319V16.0997H83.4119V18.4757H79.3799V28.6997H76.4639ZM87.6628 21.1757H93.7288V23.4437H87.6628V21.1757ZM87.8788 26.3597H94.7368V28.6997H84.9808V16.0997H94.5028V18.4397H87.8788V26.3597ZM103.087 28.9157C102.115 28.9157 101.209 28.7597 100.369 28.4477C99.541 28.1237 98.821 27.6677 98.209 27.0797C97.597 26.4917 97.117 25.8017 96.769 25.0097C96.433 24.2177 96.265 23.3477 96.265 22.3997C96.265 21.4517 96.433 20.5817 96.769 19.7897C97.117 18.9977 97.597 18.3077 98.209 17.7197C98.833 17.1317 99.559 16.6817 100.387 16.3697C101.215 16.0457 102.121 15.8837 103.105 15.8837C104.197 15.8837 105.181 16.0757 106.057 16.4597C106.945 16.8317 107.689 17.3837 108.289 18.1157L106.417 19.8437C105.985 19.3517 105.505 18.9857 104.977 18.7457C104.449 18.4937 103.873 18.3677 103.249 18.3677C102.661 18.3677 102.121 18.4637 101.629 18.6557C101.137 18.8477 100.711 19.1237 100.351 19.4837C99.991 19.8437 99.709 20.2697 99.505 20.7617C99.313 21.2537 99.217 21.7997 99.217 22.3997C99.217 22.9997 99.313 23.5457 99.505 24.0377C99.709 24.5297 99.991 24.9557 100.351 25.3157C100.711 25.6757 101.137 25.9517 101.629 26.1437C102.121 26.3357 102.661 26.4317 103.249 26.4317C103.873 26.4317 104.449 26.3117 104.977 26.0717C105.505 25.8197 105.985 25.4417 106.417 24.9377L108.289 26.6657C107.689 27.3977 106.945 27.9557 106.057 28.3397C105.181 28.7237 104.191 28.9157 103.087 28.9157ZM118.898 16.0997H121.814V28.6997H118.898V16.0997ZM113.174 28.6997H110.258V16.0997H113.174V28.6997ZM119.114 23.5337H112.958V21.0677H119.114V23.5337ZM124.795 28.6997V16.0997H130.951C132.535 16.0997 133.723 16.3997 134.515 16.9997C135.319 17.5997 135.721 18.3917 135.721 19.3757C135.721 20.0357 135.559 20.6117 135.235 21.1037C134.911 21.5837 134.467 21.9557 133.903 22.2197C133.339 22.4837 132.691 22.6157 131.959 22.6157L132.301 21.8777C133.093 21.8777 133.795 22.0097 134.407 22.2737C135.019 22.5257 135.493 22.9037 135.829 23.4077C136.177 23.9117 136.351 24.5297 136.351 25.2617C136.351 26.3417 135.925 27.1877 135.073 27.7997C134.221 28.3997 132.967 28.6997 131.311 28.6997H124.795ZM127.693 26.5037H131.095C131.851 26.5037 132.421 26.3837 132.805 26.1437C133.201 25.8917 133.399 25.4957 133.399 24.9557C133.399 24.4277 133.201 24.0377 132.805 23.7857C132.421 23.5217 131.851 23.3897 131.095 23.3897H127.477V21.2657H130.591C131.299 21.2657 131.839 21.1457 132.211 20.9057C132.595 20.6537 132.787 20.2757 132.787 19.7717C132.787 19.2797 132.595 18.9137 132.211 18.6737C131.839 18.4217 131.299 18.2957 130.591 18.2957H127.693V26.5037ZM138.559 28.6997V16.0997H144.013C145.141 16.0997 146.113 16.2857 146.929 16.6577C147.745 17.0177 148.375 17.5397 148.819 18.2237C149.263 18.9077 149.485 19.7237 149.485 20.6717C149.485 21.6077 149.263 22.4177 148.819 23.1017C148.375 23.7737 147.745 24.2897 146.929 24.6497C146.113 25.0097 145.141 25.1897 144.013 25.1897H140.179L141.475 23.9117V28.6997H138.559ZM146.569 28.6997L143.419 24.1277H146.533L149.719 28.6997H146.569ZM141.475 24.2357L140.179 22.8677H143.851C144.751 22.8677 145.423 22.6757 145.867 22.2917C146.311 21.8957 146.533 21.3557 146.533 20.6717C146.533 19.9757 146.311 19.4357 145.867 19.0517C145.423 18.6677 144.751 18.4757 143.851 18.4757H140.179L141.475 17.0897V24.2357ZM150.139 28.6997L155.755 16.0997H158.635L164.269 28.6997H161.209L156.601 17.5757H157.753L153.127 28.6997H150.139ZM152.947 25.9997L153.721 23.7857H160.201L160.993 25.9997H152.947ZM165.577 28.6997V16.0997H167.989L175.423 25.1717H174.253V16.0997H177.133V28.6997H174.739L167.287 19.6277H168.457V28.6997H165.577ZM180.114 28.6997V16.0997H185.838C187.206 16.0997 188.412 16.3637 189.456 16.8917C190.5 17.4077 191.316 18.1337 191.904 19.0697C192.492 20.0057 192.786 21.1157 192.786 22.3997C192.786 23.6717 192.492 24.7817 191.904 25.7297C191.316 26.6657 190.5 27.3977 189.456 27.9257C188.412 28.4417 187.206 28.6997 185.838 28.6997H180.114ZM183.03 26.3057H185.694C186.534 26.3057 187.26 26.1497 187.872 25.8377C188.496 25.5137 188.976 25.0577 189.312 24.4697C189.66 23.8817 189.834 23.1917 189.834 22.3997C189.834 21.5957 189.66 20.9057 189.312 20.3297C188.976 19.7417 188.496 19.2917 187.872 18.9797C187.26 18.6557 186.534 18.4937 185.694 18.4937H183.03V26.3057Z" fill="#C7F0FD"/>
<path d="M74.1959 42.0708V39.4968L74.5289 40.3788L71.7569 35.7708H73.3049L75.4289 39.3078H74.5379L76.6709 35.7708H78.1019L75.3299 40.3788L75.6539 39.4968V42.0708H74.1959ZM81.4995 42.1788C81.0015 42.1788 80.5395 42.0978 80.1135 41.9358C79.6935 41.7738 79.3275 41.5458 79.0155 41.2518C78.7095 40.9578 78.4695 40.6128 78.2955 40.2168C78.1275 39.8208 78.0435 39.3888 78.0435 38.9208C78.0435 38.4528 78.1275 38.0208 78.2955 37.6248C78.4695 37.2288 78.7125 36.8838 79.0245 36.5898C79.3365 36.2958 79.7025 36.0678 80.1225 35.9058C80.5425 35.7438 80.9985 35.6628 81.4905 35.6628C81.9885 35.6628 82.4445 35.7438 82.8585 35.9058C83.2785 36.0678 83.6415 36.2958 83.9475 36.5898C84.2595 36.8838 84.5025 37.2288 84.6765 37.6248C84.8505 38.0148 84.9375 38.4468 84.9375 38.9208C84.9375 39.3888 84.8505 39.8238 84.6765 40.2258C84.5025 40.6218 84.2595 40.9668 83.9475 41.2608C83.6415 41.5488 83.2785 41.7738 82.8585 41.9358C82.4445 42.0978 81.9915 42.1788 81.4995 42.1788ZM81.4905 40.9368C81.7725 40.9368 82.0305 40.8888 82.2645 40.7928C82.5045 40.6968 82.7145 40.5588 82.8945 40.3788C83.0745 40.1988 83.2125 39.9858 83.3085 39.7398C83.4105 39.4938 83.4615 39.2208 83.4615 38.9208C83.4615 38.6208 83.4105 38.3478 83.3085 38.1018C83.2125 37.8558 83.0745 37.6428 82.8945 37.4628C82.7205 37.2828 82.5135 37.1448 82.2735 37.0488C82.0335 36.9528 81.7725 36.9048 81.4905 36.9048C81.2085 36.9048 80.9475 36.9528 80.7075 37.0488C80.4735 37.1448 80.2665 37.2828 80.0865 37.4628C79.9065 37.6428 79.7655 37.8558 79.6635 38.1018C79.5675 38.3478 79.5195 38.6208 79.5195 38.9208C79.5195 39.2148 79.5675 39.4878 79.6635 39.7398C79.7655 39.9858 79.9035 40.1988 80.0775 40.3788C80.2575 40.5588 80.4675 40.6968 80.7075 40.7928C80.9475 40.8888 81.2085 40.9368 81.4905 40.9368ZM88.8323 42.1788C87.9383 42.1788 87.2393 41.9298 86.7353 41.4318C86.2313 40.9338 85.9793 40.2228 85.9793 39.2988V35.7708H87.4373V39.2448C87.4373 39.8448 87.5603 40.2768 87.8063 40.5408C88.0523 40.8048 88.3973 40.9368 88.8413 40.9368C89.2853 40.9368 89.6303 40.8048 89.8763 40.5408C90.1223 40.2768 90.2453 39.8448 90.2453 39.2448V35.7708H91.6853V39.2988C91.6853 40.2228 91.4333 40.9338 90.9293 41.4318C90.4253 41.9298 89.7263 42.1788 88.8323 42.1788ZM93.126 42.0708V35.7708H95.853C96.417 35.7708 96.903 35.8638 97.311 36.0498C97.719 36.2298 98.034 36.4908 98.256 36.8328C98.478 37.1748 98.589 37.5828 98.589 38.0568C98.589 38.5248 98.478 38.9298 98.256 39.2718C98.034 39.6078 97.719 39.8658 97.311 40.0458C96.903 40.2258 96.417 40.3158 95.853 40.3158H93.936L94.584 39.6768V42.0708H93.126ZM97.131 42.0708L95.556 39.7848H97.113L98.706 42.0708H97.131ZM94.584 39.8388L93.936 39.1548H95.772C96.222 39.1548 96.558 39.0588 96.78 38.8668C97.002 38.6688 97.113 38.3988 97.113 38.0568C97.113 37.7088 97.002 37.4388 96.78 37.2468C96.558 37.0548 96.222 36.9588 95.772 36.9588H93.936L94.584 36.2658V39.8388ZM103.598 42.0708V36.9588H101.582V35.7708H107.072V36.9588H105.056V42.0708H103.598ZM106.712 42.0708L109.52 35.7708H110.96L113.777 42.0708H112.247L109.943 36.5088H110.519L108.206 42.0708H106.712ZM108.116 40.7208L108.503 39.6138H111.743L112.139 40.7208H108.116ZM117.385 42.1788C116.887 42.1788 116.428 42.1008 116.008 41.9448C115.594 41.7828 115.231 41.5548 114.919 41.2608C114.613 40.9668 114.373 40.6218 114.199 40.2258C114.031 39.8298 113.947 39.3948 113.947 38.9208C113.947 38.4468 114.031 38.0118 114.199 37.6158C114.373 37.2198 114.616 36.8748 114.928 36.5808C115.24 36.2868 115.606 36.0618 116.026 35.9058C116.446 35.7438 116.908 35.6628 117.412 35.6628C117.97 35.6628 118.471 35.7558 118.915 35.9418C119.365 36.1278 119.743 36.3978 120.049 36.7518L119.113 37.6158C118.885 37.3758 118.636 37.1988 118.366 37.0848C118.096 36.9648 117.802 36.9048 117.484 36.9048C117.178 36.9048 116.899 36.9528 116.647 37.0488C116.395 37.1448 116.176 37.2828 115.99 37.4628C115.81 37.6428 115.669 37.8558 115.567 38.1018C115.471 38.3478 115.423 38.6208 115.423 38.9208C115.423 39.2148 115.471 39.4848 115.567 39.7308C115.669 39.9768 115.81 40.1928 115.99 40.3788C116.176 40.5588 116.392 40.6968 116.638 40.7928C116.89 40.8888 117.166 40.9368 117.466 40.9368C117.754 40.9368 118.033 40.8918 118.303 40.8018C118.579 40.7058 118.846 40.5468 119.104 40.3248L119.932 41.3778C119.59 41.6358 119.191 41.8338 118.735 41.9718C118.285 42.1098 117.835 42.1788 117.385 42.1788ZM118.6 41.1888V38.8218H119.932V41.3778L118.6 41.1888ZM121.286 42.0708V35.7708H122.744V40.8828H125.903V42.0708H121.286ZM126.718 42.0708V35.7708H128.176V42.0708H126.718ZM129.671 42.0708V35.7708H130.877L134.594 40.3068H134.009V35.7708H135.449V42.0708H134.252L130.526 37.5348H131.111V42.0708H129.671ZM138.281 38.3088H141.314V39.4428H138.281V38.3088ZM138.389 40.9008H141.818V42.0708H136.94V35.7708H141.701V36.9408H138.389V40.9008ZM148.568 42.1788C148.07 42.1788 147.611 42.1008 147.191 41.9448C146.777 41.7828 146.414 41.5548 146.102 41.2608C145.796 40.9668 145.556 40.6218 145.382 40.2258C145.214 39.8298 145.13 39.3948 145.13 38.9208C145.13 38.4468 145.214 38.0118 145.382 37.6158C145.556 37.2198 145.799 36.8748 146.111 36.5808C146.423 36.2868 146.789 36.0618 147.209 35.9058C147.629 35.7438 148.091 35.6628 148.595 35.6628C149.153 35.6628 149.654 35.7558 150.098 35.9418C150.548 36.1278 150.926 36.3978 151.232 36.7518L150.296 37.6158C150.068 37.3758 149.819 37.1988 149.549 37.0848C149.279 36.9648 148.985 36.9048 148.667 36.9048C148.361 36.9048 148.082 36.9528 147.83 37.0488C147.578 37.1448 147.359 37.2828 147.173 37.4628C146.993 37.6428 146.852 37.8558 146.75 38.1018C146.654 38.3478 146.606 38.6208 146.606 38.9208C146.606 39.2148 146.654 39.4848 146.75 39.7308C146.852 39.9768 146.993 40.1928 147.173 40.3788C147.359 40.5588 147.575 40.6968 147.821 40.7928C148.073 40.8888 148.349 40.9368 148.649 40.9368C148.937 40.9368 149.216 40.8918 149.486 40.8018C149.762 40.7058 150.029 40.5468 150.287 40.3248L151.115 41.3778C150.773 41.6358 150.374 41.8338 149.918 41.9718C149.468 42.1098 149.018 42.1788 148.568 42.1788ZM149.783 41.1888V38.8218H151.115V41.3778L149.783 41.1888ZM155.53 42.1788C155.032 42.1788 154.57 42.0978 154.144 41.9358C153.724 41.7738 153.358 41.5458 153.046 41.2518C152.74 40.9578 152.5 40.6128 152.326 40.2168C152.158 39.8208 152.074 39.3888 152.074 38.9208C152.074 38.4528 152.158 38.0208 152.326 37.6248C152.5 37.2288 152.743 36.8838 153.055 36.5898C153.367 36.2958 153.733 36.0678 154.153 35.9058C154.573 35.7438 155.029 35.6628 155.521 35.6628C156.019 35.6628 156.475 35.7438 156.889 35.9058C157.309 36.0678 157.672 36.2958 157.978 36.5898C158.29 36.8838 158.533 37.2288 158.707 37.6248C158.881 38.0148 158.968 38.4468 158.968 38.9208C158.968 39.3888 158.881 39.8238 158.707 40.2258C158.533 40.6218 158.29 40.9668 157.978 41.2608C157.672 41.5488 157.309 41.7738 156.889 41.9358C156.475 42.0978 156.022 42.1788 155.53 42.1788ZM155.521 40.9368C155.803 40.9368 156.061 40.8888 156.295 40.7928C156.535 40.6968 156.745 40.5588 156.925 40.3788C157.105 40.1988 157.243 39.9858 157.339 39.7398C157.441 39.4938 157.492 39.2208 157.492 38.9208C157.492 38.6208 157.441 38.3478 157.339 38.1018C157.243 37.8558 157.105 37.6428 156.925 37.4628C156.751 37.2828 156.544 37.1448 156.304 37.0488C156.064 36.9528 155.803 36.9048 155.521 36.9048C155.239 36.9048 154.978 36.9528 154.738 37.0488C154.504 37.1448 154.297 37.2828 154.117 37.4628C153.937 37.6428 153.796 37.8558 153.694 38.1018C153.598 38.3478 153.55 38.6208 153.55 38.9208C153.55 39.2148 153.598 39.4878 153.694 39.7398C153.796 39.9858 153.934 40.1988 154.108 40.3788C154.288 40.5588 154.498 40.6968 154.738 40.7928C154.978 40.8888 155.239 40.9368 155.521 40.9368ZM161.405 38.3088H164.438V39.4428H161.405V38.3088ZM161.513 40.9008H164.942V42.0708H160.064V35.7708H164.825V36.9408H161.513V40.9008ZM168.172 42.1788C167.668 42.1788 167.185 42.1128 166.723 41.9808C166.261 41.8428 165.889 41.6658 165.607 41.4498L166.102 40.3518C166.372 40.5438 166.69 40.7028 167.056 40.8288C167.428 40.9488 167.803 41.0088 168.181 41.0088C168.469 41.0088 168.7 40.9818 168.874 40.9278C169.054 40.8678 169.186 40.7868 169.27 40.6848C169.354 40.5828 169.396 40.4658 169.396 40.3338C169.396 40.1658 169.33 40.0338 169.198 39.9378C169.066 39.8358 168.892 39.7548 168.676 39.6948C168.46 39.6288 168.22 39.5688 167.956 39.5148C167.698 39.4548 167.437 39.3828 167.173 39.2988C166.915 39.2148 166.678 39.1068 166.462 38.9748C166.246 38.8428 166.069 38.6688 165.931 38.4528C165.799 38.2368 165.733 37.9608 165.733 37.6248C165.733 37.2648 165.829 36.9378 166.021 36.6438C166.219 36.3438 166.513 36.1068 166.903 35.9328C167.299 35.7528 167.794 35.6628 168.388 35.6628C168.784 35.6628 169.174 35.7108 169.558 35.8068C169.942 35.8968 170.281 36.0348 170.575 36.2208L170.125 37.3278C169.831 37.1598 169.537 37.0368 169.243 36.9588C168.949 36.8748 168.661 36.8328 168.379 36.8328C168.097 36.8328 167.866 36.8658 167.686 36.9318C167.506 36.9978 167.377 37.0848 167.299 37.1928C167.221 37.2948 167.182 37.4148 167.182 37.5528C167.182 37.7148 167.248 37.8468 167.38 37.9488C167.512 38.0448 167.686 38.1228 167.902 38.1828C168.118 38.2428 168.355 38.3028 168.613 38.3628C168.877 38.4228 169.138 38.4918 169.396 38.5698C169.66 38.6478 169.9 38.7528 170.116 38.8848C170.332 39.0168 170.506 39.1908 170.638 39.4068C170.776 39.6228 170.845 39.8958 170.845 40.2258C170.845 40.5798 170.746 40.9038 170.548 41.1978C170.35 41.4918 170.053 41.7288 169.657 41.9088C169.267 42.0888 168.772 42.1788 168.172 42.1788ZM178.71 35.7708H180.168V42.0708H178.71V35.7708ZM175.848 42.0708H174.39V35.7708H175.848V42.0708ZM178.818 39.4878H175.74V38.2548H178.818V39.4878ZM182.999 38.3088H186.032V39.4428H182.999V38.3088ZM183.107 40.9008H186.536V42.0708H181.658V35.7708H186.419V36.9408H183.107V40.9008ZM187.696 42.0708V35.7708H190.423C190.987 35.7708 191.473 35.8638 191.881 36.0498C192.289 36.2298 192.604 36.4908 192.826 36.8328C193.048 37.1748 193.159 37.5828 193.159 38.0568C193.159 38.5248 193.048 38.9298 192.826 39.2718C192.604 39.6078 192.289 39.8658 191.881 40.0458C191.473 40.2258 190.987 40.3158 190.423 40.3158H188.506L189.154 39.6768V42.0708H187.696ZM191.701 42.0708L190.126 39.7848H191.683L193.276 42.0708H191.701ZM189.154 39.8388L188.506 39.1548H190.342C190.792 39.1548 191.128 39.0588 191.35 38.8668C191.572 38.6688 191.683 38.3988 191.683 38.0568C191.683 37.7088 191.572 37.4388 191.35 37.2468C191.128 37.0548 190.792 36.9588 190.342 36.9588H188.506L189.154 36.2658V39.8388ZM195.656 38.3088H198.689V39.4428H195.656V38.3088ZM195.764 40.9008H199.193V42.0708H194.315V35.7708H199.076V36.9408H195.764V40.9008Z" fill="#C7F0FD"/>
<path d="M26.6502 38.8945C20.2463 38.8945 15.0068 33.6437 15.0068 27.2261H2.0697C2.0697 40.8392 13.0662 51.8593 26.6502 51.8593V38.8945Z" fill="#C7F0FD"/>
<path d="M26.6502 38.8945C20.2463 38.8945 15.0068 33.6437 15.0068 27.2261H2.0697C2.0697 40.8392 13.0662 51.8593 26.6502 51.8593V38.8945Z" fill="#C7F0FD"/>
<path d="M26.6502 33.4492V27.2261H20.4404C21.6695 30.0135 23.8687 32.2824 26.6502 33.4492Z" fill="#C7F0FD"/>
<path d="M26.6504 0C13.3899 0 2.39336 9.46435 0 22.0403H12.6783H20.2465H31.8899V33.7087V41.2931V53.9987C44.4389 51.6002 53.883 40.5152 53.883 27.2911C53.8183 12.187 41.6574 0 26.6504 0ZM37 46.6735V16.8543H7.24474C10.9965 9.8533 18.3706 5.18595 26.6504 5.18595C38.7466 5.18595 48.6434 15.1041 48.6434 27.2262C48.6434 35.5237 44.0508 42.9785 37 46.6735Z" fill="#C7F0FD"/>
</svg>
