<svg width="208" height="54" viewBox="0 0 208 54" fill="none" xmlns="http://www.w3.org/2000/svg">
<g opacity="0.7">
<path d="M84.9224 29.9275V19.7035H80.8904V17.3275H91.8704V19.7035H87.8384V29.9275H84.9224ZM96.1213 22.4035H102.187V24.6715H96.1213V22.4035ZM96.3373 27.5875H103.195V29.9275H93.4393V17.3275H102.961V19.6675H96.3373V27.5875ZM111.545 30.1435C110.573 30.1435 109.667 29.9875 108.827 29.6755C107.999 29.3515 107.279 28.8955 106.667 28.3075C106.055 27.7195 105.575 27.0295 105.227 26.2375C104.891 25.4455 104.723 24.5755 104.723 23.6275C104.723 22.6795 104.891 21.8095 105.227 21.0175C105.575 20.2255 106.055 19.5355 106.667 18.9475C107.291 18.3595 108.017 17.9095 108.845 17.5975C109.673 17.2735 110.579 17.1115 111.563 17.1115C112.655 17.1115 113.639 17.3035 114.515 17.6875C115.403 18.0595 116.147 18.6115 116.747 19.3435L114.875 21.0715C114.443 20.5795 113.963 20.2135 113.435 19.9735C112.907 19.7215 112.331 19.5955 111.707 19.5955C111.119 19.5955 110.579 19.6915 110.087 19.8835C109.595 20.0755 109.169 20.3515 108.809 20.7115C108.449 21.0715 108.167 21.4975 107.963 21.9895C107.771 22.4815 107.675 23.0275 107.675 23.6275C107.675 24.2275 107.771 24.7735 107.963 25.2655C108.167 25.7575 108.449 26.1835 108.809 26.5435C109.169 26.9035 109.595 27.1795 110.087 27.3715C110.579 27.5635 111.119 27.6595 111.707 27.6595C112.331 27.6595 112.907 27.5395 113.435 27.2995C113.963 27.0475 114.443 26.6695 114.875 26.1655L116.747 27.8935C116.147 28.6255 115.403 29.1835 114.515 29.5675C113.639 29.9515 112.649 30.1435 111.545 30.1435ZM127.357 17.3275H130.273V29.9275H127.357V17.3275ZM121.633 29.9275H118.717V17.3275H121.633V29.9275ZM127.573 24.7615H121.417V22.2955H127.573V24.7615ZM133.254 29.9275V17.3275H139.41C140.994 17.3275 142.182 17.6275 142.974 18.2275C143.778 18.8275 144.18 19.6195 144.18 20.6035C144.18 21.2635 144.018 21.8395 143.694 22.3315C143.37 22.8115 142.926 23.1835 142.362 23.4475C141.798 23.7115 141.15 23.8435 140.418 23.8435L140.76 23.1055C141.552 23.1055 142.254 23.2375 142.866 23.5015C143.478 23.7535 143.952 24.1315 144.288 24.6355C144.636 25.1395 144.81 25.7575 144.81 26.4895C144.81 27.5695 144.384 28.4155 143.532 29.0275C142.68 29.6275 141.426 29.9275 139.77 29.9275H133.254ZM136.152 27.7315H139.554C140.31 27.7315 140.88 27.6115 141.264 27.3715C141.66 27.1195 141.858 26.7235 141.858 26.1835C141.858 25.6555 141.66 25.2655 141.264 25.0135C140.88 24.7495 140.31 24.6175 139.554 24.6175H135.936V22.4935H139.05C139.758 22.4935 140.298 22.3735 140.67 22.1335C141.054 21.8815 141.246 21.5035 141.246 20.9995C141.246 20.5075 141.054 20.1415 140.67 19.9015C140.298 19.6495 139.758 19.5235 139.05 19.5235H136.152V27.7315ZM147.017 29.9275V17.3275H152.471C153.599 17.3275 154.571 17.5135 155.387 17.8855C156.203 18.2455 156.833 18.7675 157.277 19.4515C157.721 20.1355 157.943 20.9515 157.943 21.8995C157.943 22.8355 157.721 23.6455 157.277 24.3295C156.833 25.0015 156.203 25.5175 155.387 25.8775C154.571 26.2375 153.599 26.4175 152.471 26.4175H148.637L149.933 25.1395V29.9275H147.017ZM155.027 29.9275L151.877 25.3555H154.991L158.177 29.9275H155.027ZM149.933 25.4635L148.637 24.0955H152.309C153.209 24.0955 153.881 23.9035 154.325 23.5195C154.769 23.1235 154.991 22.5835 154.991 21.8995C154.991 21.2035 154.769 20.6635 154.325 20.2795C153.881 19.8955 153.209 19.7035 152.309 19.7035H148.637L149.933 18.3175V25.4635ZM158.598 29.9275L164.214 17.3275H167.094L172.728 29.9275H169.668L165.06 18.8035H166.212L161.586 29.9275H158.598ZM161.406 27.2275L162.18 25.0135H168.66L169.452 27.2275H161.406ZM174.035 29.9275V17.3275H176.447L183.881 26.3995H182.711V17.3275H185.591V29.9275H183.197L175.745 20.8555H176.915V29.9275H174.035ZM188.572 29.9275V17.3275H194.296C195.664 17.3275 196.87 17.5915 197.914 18.1195C198.958 18.6355 199.774 19.3615 200.362 20.2975C200.95 21.2335 201.244 22.3435 201.244 23.6275C201.244 24.8995 200.95 26.0095 200.362 26.9575C199.774 27.8935 198.958 28.6255 197.914 29.1535C196.87 29.6695 195.664 29.9275 194.296 29.9275H188.572ZM191.488 27.5335H194.152C194.992 27.5335 195.718 27.3775 196.33 27.0655C196.954 26.7415 197.434 26.2855 197.77 25.6975C198.118 25.1095 198.292 24.4195 198.292 23.6275C198.292 22.8235 198.118 22.1335 197.77 21.5575C197.434 20.9695 196.954 20.5195 196.33 20.2075C195.718 19.8835 194.992 19.7215 194.152 19.7215H191.488V27.5335Z" fill="#C7F0FD"/>
<path d="M82.313 44.4524V41.8784L82.646 42.7604L79.874 38.1524H81.422L83.546 41.6894H82.655L84.788 38.1524H86.219L83.447 42.7604L83.771 41.8784V44.4524H82.313ZM89.6166 44.5604C89.1186 44.5604 88.6566 44.4794 88.2306 44.3174C87.8106 44.1554 87.4446 43.9274 87.1326 43.6334C86.8266 43.3394 86.5866 42.9944 86.4126 42.5984C86.2446 42.2024 86.1606 41.7704 86.1606 41.3024C86.1606 40.8344 86.2446 40.4024 86.4126 40.0064C86.5866 39.6104 86.8296 39.2654 87.1416 38.9714C87.4536 38.6774 87.8196 38.4494 88.2396 38.2874C88.6596 38.1254 89.1156 38.0444 89.6076 38.0444C90.1056 38.0444 90.5616 38.1254 90.9756 38.2874C91.3956 38.4494 91.7586 38.6774 92.0646 38.9714C92.3766 39.2654 92.6196 39.6104 92.7936 40.0064C92.9676 40.3964 93.0546 40.8284 93.0546 41.3024C93.0546 41.7704 92.9676 42.2054 92.7936 42.6074C92.6196 43.0034 92.3766 43.3484 92.0646 43.6424C91.7586 43.9304 91.3956 44.1554 90.9756 44.3174C90.5616 44.4794 90.1086 44.5604 89.6166 44.5604ZM89.6076 43.3184C89.8896 43.3184 90.1476 43.2704 90.3816 43.1744C90.6216 43.0784 90.8316 42.9404 91.0116 42.7604C91.1916 42.5804 91.3296 42.3674 91.4256 42.1214C91.5276 41.8754 91.5786 41.6024 91.5786 41.3024C91.5786 41.0024 91.5276 40.7294 91.4256 40.4834C91.3296 40.2374 91.1916 40.0244 91.0116 39.8444C90.8376 39.6644 90.6306 39.5264 90.3906 39.4304C90.1506 39.3344 89.8896 39.2864 89.6076 39.2864C89.3256 39.2864 89.0646 39.3344 88.8246 39.4304C88.5906 39.5264 88.3836 39.6644 88.2036 39.8444C88.0236 40.0244 87.8826 40.2374 87.7806 40.4834C87.6846 40.7294 87.6366 41.0024 87.6366 41.3024C87.6366 41.5964 87.6846 41.8694 87.7806 42.1214C87.8826 42.3674 88.0206 42.5804 88.1946 42.7604C88.3746 42.9404 88.5846 43.0784 88.8246 43.1744C89.0646 43.2704 89.3256 43.3184 89.6076 43.3184ZM96.9493 44.5604C96.0553 44.5604 95.3563 44.3114 94.8523 43.8134C94.3483 43.3154 94.0963 42.6044 94.0963 41.6804V38.1524H95.5543V41.6264C95.5543 42.2264 95.6773 42.6584 95.9233 42.9224C96.1693 43.1864 96.5143 43.3184 96.9583 43.3184C97.4023 43.3184 97.7473 43.1864 97.9933 42.9224C98.2393 42.6584 98.3623 42.2264 98.3623 41.6264V38.1524H99.8023V41.6804C99.8023 42.6044 99.5503 43.3154 99.0463 43.8134C98.5423 44.3114 97.8433 44.5604 96.9493 44.5604ZM101.243 44.4524V38.1524H103.97C104.534 38.1524 105.02 38.2454 105.428 38.4314C105.836 38.6114 106.151 38.8724 106.373 39.2144C106.595 39.5564 106.706 39.9644 106.706 40.4384C106.706 40.9064 106.595 41.3114 106.373 41.6534C106.151 41.9894 105.836 42.2474 105.428 42.4274C105.02 42.6074 104.534 42.6974 103.97 42.6974H102.053L102.701 42.0584V44.4524H101.243ZM105.248 44.4524L103.673 42.1664H105.23L106.823 44.4524H105.248ZM102.701 42.2204L102.053 41.5364H103.889C104.339 41.5364 104.675 41.4404 104.897 41.2484C105.119 41.0504 105.23 40.7804 105.23 40.4384C105.23 40.0904 105.119 39.8204 104.897 39.6284C104.675 39.4364 104.339 39.3404 103.889 39.3404H102.053L102.701 38.6474V42.2204ZM111.715 44.4524V39.3404H109.699V38.1524H115.189V39.3404H113.173V44.4524H111.715ZM114.829 44.4524L117.637 38.1524H119.077L121.894 44.4524H120.364L118.06 38.8904H118.636L116.323 44.4524H114.829ZM116.233 43.1024L116.62 41.9954H119.86L120.256 43.1024H116.233ZM125.502 44.5604C125.004 44.5604 124.545 44.4824 124.125 44.3264C123.711 44.1644 123.348 43.9364 123.036 43.6424C122.73 43.3484 122.49 43.0034 122.316 42.6074C122.148 42.2114 122.064 41.7764 122.064 41.3024C122.064 40.8284 122.148 40.3934 122.316 39.9974C122.49 39.6014 122.733 39.2564 123.045 38.9624C123.357 38.6684 123.723 38.4434 124.143 38.2874C124.563 38.1254 125.025 38.0444 125.529 38.0444C126.087 38.0444 126.588 38.1374 127.032 38.3234C127.482 38.5094 127.86 38.7794 128.166 39.1334L127.23 39.9974C127.002 39.7574 126.753 39.5804 126.483 39.4664C126.213 39.3464 125.919 39.2864 125.601 39.2864C125.295 39.2864 125.016 39.3344 124.764 39.4304C124.512 39.5264 124.293 39.6644 124.107 39.8444C123.927 40.0244 123.786 40.2374 123.684 40.4834C123.588 40.7294 123.54 41.0024 123.54 41.3024C123.54 41.5964 123.588 41.8664 123.684 42.1124C123.786 42.3584 123.927 42.5744 124.107 42.7604C124.293 42.9404 124.509 43.0784 124.755 43.1744C125.007 43.2704 125.283 43.3184 125.583 43.3184C125.871 43.3184 126.15 43.2734 126.42 43.1834C126.696 43.0874 126.963 42.9284 127.221 42.7064L128.049 43.7594C127.707 44.0174 127.308 44.2154 126.852 44.3534C126.402 44.4914 125.952 44.5604 125.502 44.5604ZM126.717 43.5704V41.2034H128.049V43.7594L126.717 43.5704ZM129.403 44.4524V38.1524H130.861V43.2644H134.02V44.4524H129.403ZM134.835 44.4524V38.1524H136.293V44.4524H134.835ZM137.788 44.4524V38.1524H138.994L142.711 42.6884H142.126V38.1524H143.566V44.4524H142.369L138.643 39.9164H139.228V44.4524H137.788ZM146.398 40.6904H149.431V41.8244H146.398V40.6904ZM146.506 43.2824H149.935V44.4524H145.057V38.1524H149.818V39.3224H146.506V43.2824ZM156.685 44.5604C156.187 44.5604 155.728 44.4824 155.308 44.3264C154.894 44.1644 154.531 43.9364 154.219 43.6424C153.913 43.3484 153.673 43.0034 153.499 42.6074C153.331 42.2114 153.247 41.7764 153.247 41.3024C153.247 40.8284 153.331 40.3934 153.499 39.9974C153.673 39.6014 153.916 39.2564 154.228 38.9624C154.54 38.6684 154.906 38.4434 155.326 38.2874C155.746 38.1254 156.208 38.0444 156.712 38.0444C157.27 38.0444 157.771 38.1374 158.215 38.3234C158.665 38.5094 159.043 38.7794 159.349 39.1334L158.413 39.9974C158.185 39.7574 157.936 39.5804 157.666 39.4664C157.396 39.3464 157.102 39.2864 156.784 39.2864C156.478 39.2864 156.199 39.3344 155.947 39.4304C155.695 39.5264 155.476 39.6644 155.29 39.8444C155.11 40.0244 154.969 40.2374 154.867 40.4834C154.771 40.7294 154.723 41.0024 154.723 41.3024C154.723 41.5964 154.771 41.8664 154.867 42.1124C154.969 42.3584 155.11 42.5744 155.29 42.7604C155.476 42.9404 155.692 43.0784 155.938 43.1744C156.19 43.2704 156.466 43.3184 156.766 43.3184C157.054 43.3184 157.333 43.2734 157.603 43.1834C157.879 43.0874 158.146 42.9284 158.404 42.7064L159.232 43.7594C158.89 44.0174 158.491 44.2154 158.035 44.3534C157.585 44.4914 157.135 44.5604 156.685 44.5604ZM157.9 43.5704V41.2034H159.232V43.7594L157.9 43.5704ZM163.647 44.5604C163.149 44.5604 162.687 44.4794 162.261 44.3174C161.841 44.1554 161.475 43.9274 161.163 43.6334C160.857 43.3394 160.617 42.9944 160.443 42.5984C160.275 42.2024 160.191 41.7704 160.191 41.3024C160.191 40.8344 160.275 40.4024 160.443 40.0064C160.617 39.6104 160.86 39.2654 161.172 38.9714C161.484 38.6774 161.85 38.4494 162.27 38.2874C162.69 38.1254 163.146 38.0444 163.638 38.0444C164.136 38.0444 164.592 38.1254 165.006 38.2874C165.426 38.4494 165.789 38.6774 166.095 38.9714C166.407 39.2654 166.65 39.6104 166.824 40.0064C166.998 40.3964 167.085 40.8284 167.085 41.3024C167.085 41.7704 166.998 42.2054 166.824 42.6074C166.65 43.0034 166.407 43.3484 166.095 43.6424C165.789 43.9304 165.426 44.1554 165.006 44.3174C164.592 44.4794 164.139 44.5604 163.647 44.5604ZM163.638 43.3184C163.92 43.3184 164.178 43.2704 164.412 43.1744C164.652 43.0784 164.862 42.9404 165.042 42.7604C165.222 42.5804 165.36 42.3674 165.456 42.1214C165.558 41.8754 165.609 41.6024 165.609 41.3024C165.609 41.0024 165.558 40.7294 165.456 40.4834C165.36 40.2374 165.222 40.0244 165.042 39.8444C164.868 39.6644 164.661 39.5264 164.421 39.4304C164.181 39.3344 163.92 39.2864 163.638 39.2864C163.356 39.2864 163.095 39.3344 162.855 39.4304C162.621 39.5264 162.414 39.6644 162.234 39.8444C162.054 40.0244 161.913 40.2374 161.811 40.4834C161.715 40.7294 161.667 41.0024 161.667 41.3024C161.667 41.5964 161.715 41.8694 161.811 42.1214C161.913 42.3674 162.051 42.5804 162.225 42.7604C162.405 42.9404 162.615 43.0784 162.855 43.1744C163.095 43.2704 163.356 43.3184 163.638 43.3184ZM169.522 40.6904H172.555V41.8244H169.522V40.6904ZM169.63 43.2824H173.059V44.4524H168.181V38.1524H172.942V39.3224H169.63V43.2824ZM176.289 44.5604C175.785 44.5604 175.302 44.4944 174.84 44.3624C174.378 44.2244 174.006 44.0474 173.724 43.8314L174.219 42.7334C174.489 42.9254 174.807 43.0844 175.173 43.2104C175.545 43.3304 175.92 43.3904 176.298 43.3904C176.586 43.3904 176.817 43.3634 176.991 43.3094C177.171 43.2494 177.303 43.1684 177.387 43.0664C177.471 42.9644 177.513 42.8474 177.513 42.7154C177.513 42.5474 177.447 42.4154 177.315 42.3194C177.183 42.2174 177.009 42.1364 176.793 42.0764C176.577 42.0104 176.337 41.9504 176.073 41.8964C175.815 41.8364 175.554 41.7644 175.29 41.6804C175.032 41.5964 174.795 41.4884 174.579 41.3564C174.363 41.2244 174.186 41.0504 174.048 40.8344C173.916 40.6184 173.85 40.3424 173.85 40.0064C173.85 39.6464 173.946 39.3194 174.138 39.0254C174.336 38.7254 174.63 38.4884 175.02 38.3144C175.416 38.1344 175.911 38.0444 176.505 38.0444C176.901 38.0444 177.291 38.0924 177.675 38.1884C178.059 38.2784 178.398 38.4164 178.692 38.6024L178.242 39.7094C177.948 39.5414 177.654 39.4184 177.36 39.3404C177.066 39.2564 176.778 39.2144 176.496 39.2144C176.214 39.2144 175.983 39.2474 175.803 39.3134C175.623 39.3794 175.494 39.4664 175.416 39.5744C175.338 39.6764 175.299 39.7964 175.299 39.9344C175.299 40.0964 175.365 40.2284 175.497 40.3304C175.629 40.4264 175.803 40.5044 176.019 40.5644C176.235 40.6244 176.472 40.6844 176.73 40.7444C176.994 40.8044 177.255 40.8734 177.513 40.9514C177.777 41.0294 178.017 41.1344 178.233 41.2664C178.449 41.3984 178.623 41.5724 178.755 41.7884C178.893 42.0044 178.962 42.2774 178.962 42.6074C178.962 42.9614 178.863 43.2854 178.665 43.5794C178.467 43.8734 178.17 44.1104 177.774 44.2904C177.384 44.4704 176.889 44.5604 176.289 44.5604ZM186.827 38.1524H188.285V44.4524H186.827V38.1524ZM183.965 44.4524H182.507V38.1524H183.965V44.4524ZM186.935 41.8694H183.857V40.6364H186.935V41.8694ZM191.116 40.6904H194.149V41.8244H191.116V40.6904ZM191.224 43.2824H194.653V44.4524H189.775V38.1524H194.536V39.3224H191.224V43.2824ZM195.813 44.4524V38.1524H198.54C199.104 38.1524 199.59 38.2454 199.998 38.4314C200.406 38.6114 200.721 38.8724 200.943 39.2144C201.165 39.5564 201.276 39.9644 201.276 40.4384C201.276 40.9064 201.165 41.3114 200.943 41.6534C200.721 41.9894 200.406 42.2474 199.998 42.4274C199.59 42.6074 199.104 42.6974 198.54 42.6974H196.623L197.271 42.0584V44.4524H195.813ZM199.818 44.4524L198.243 42.1664H199.8L201.393 44.4524H199.818ZM197.271 42.2204L196.623 41.5364H198.459C198.909 41.5364 199.245 41.4404 199.467 41.2484C199.689 41.0504 199.8 40.7804 199.8 40.4384C199.8 40.0904 199.689 39.8204 199.467 39.6284C199.245 39.4364 198.909 39.3404 198.459 39.3404H196.623L197.271 38.6474V42.2204ZM203.773 40.6904H206.806V41.8244H203.773V40.6904ZM203.881 43.2824H207.31V44.4524H202.432V38.1524H207.193V39.3224H203.881V43.2824Z" fill="#C7F0FD"/>
</g>
<path d="M41.1054 0H20.8952L0 53.9955H20.2101L41.1054 0Z" fill="#C7F0FD"/>
<path d="M42.9544 4.80811L32.8151 30.9183L41.7897 53.9958H61.9999L42.9544 4.80811Z" fill="#C7F0FD"/>
<path d="M38.1591 53.9955H28.5679L35.6928 46.377L38.1591 53.9955Z" fill="#C7F0FD"/>
</svg>
