<svg width="108" height="108" viewBox="0 0 108 108" fill="none" xmlns="http://www.w3.org/2000/svg">
<g filter="url(#filter0_d_2_1921)">
<rect x="11" y="11" width="86" height="86" rx="6" fill="#C7F0FD"/>
</g>
<path d="M48.5762 63.6512C48.6056 62.9668 48.8967 62.3202 49.3887 61.8463C49.8808 61.3725 50.5357 61.108 51.217 61.108C51.8982 61.108 52.5532 61.3725 53.0452 61.8463C53.5372 62.3202 53.8283 62.9668 53.8577 63.6512C54.0121 70.1349 56.066 75.2593 58.5678 75.2593C61.1699 75.2593 63.2855 69.7225 63.2855 62.8875C63.2869 61.684 63.2192 60.4815 63.0826 59.286C62.9955 58.4647 63.0789 57.6342 63.3274 56.8471C63.576 56.0599 63.9843 55.3332 64.5265 54.7129C66.6328 52.1404 67.7611 48.8988 67.7099 45.567C67.7099 38.5869 63.1157 32.9355 57.4404 32.9355C56.2294 32.9367 55.0323 33.195 53.9274 33.6936C53.1302 34.0505 52.2672 34.2349 51.3946 34.2349C50.5219 34.2349 49.659 34.0505 48.8617 33.6936C47.7568 33.195 46.5597 32.9367 45.3487 32.9355C39.6812 32.9355 35.0792 38.5869 35.0792 45.567C35.0353 48.7841 36.0848 51.9199 38.0541 54.4558C38.568 55.0729 38.9519 55.7886 39.1823 56.5595C39.4127 57.3305 39.4848 58.1404 39.3942 58.9402C39.2287 60.2494 39.1466 61.5678 39.1484 62.8875C39.1484 69.7225 41.2641 75.2593 43.8662 75.2593C46.3679 75.2593 48.4218 70.1349 48.5762 63.6512Z" stroke="#45CDF7" stroke-width="2" stroke-linecap="round" stroke-linejoin="round"/>
<path d="M26 77.2058C28.9967 74.0557 34.0681 71.3697 39.8051 69.14C42.5652 68.0646 45.4821 67.0927 48.3989 66.2344C50.2494 65.6761 52.0894 65.1694 53.8981 64.7041C57.2645 63.8355 60.4741 63.1117 63.2864 62.5429C66.8201 61.7984 69.716 61.2918 71.4306 61.0126C71.8862 60.939 72.3011 60.7054 72.6016 60.3532C72.9021 60.0011 73.0688 59.5533 73.072 59.0893V59.0066C73.0528 58.5455 72.8724 58.106 72.5625 57.7655C72.2527 57.425 71.8334 57.2054 71.3783 57.1453L63.6524 56.0596" stroke="#45CDF7" stroke-width="2" stroke-linecap="round" stroke-linejoin="round"/>
<path d="M36.6373 52.244L30.3227 51.3548C29.6957 51.2722 29.1199 50.9635 28.7022 50.4862C28.2831 50.0181 28.052 49.4099 28.054 48.78C28.0602 48.0888 28.3369 47.4279 28.8241 46.9402C29.3113 46.4526 29.9698 46.1774 30.6572 46.1743C32.1836 46.164 33.6577 46.1329 35.09 46.0916C50.0612 45.6676 60.2545 43.8787 67.1651 41.5005C76.875 38.1634 80.1034 33.6739 81 30.2058" stroke="#45CDF7" stroke-width="2" stroke-linecap="round" stroke-linejoin="round"/>
<defs>
<filter id="filter0_d_2_1921" x="0.9" y="0.9" width="106.2" height="106.2" filterUnits="userSpaceOnUse" color-interpolation-filters="sRGB">
<feFlood flood-opacity="0" result="BackgroundImageFix"/>
<feColorMatrix in="SourceAlpha" type="matrix" values="0 0 0 0 0 0 0 0 0 0 0 0 0 0 0 0 0 0 127 0" result="hardAlpha"/>
<feOffset/>
<feGaussianBlur stdDeviation="5.05"/>
<feComposite in2="hardAlpha" operator="out"/>
<feColorMatrix type="matrix" values="0 0 0 0 0.192157 0 0 0 0 0.466667 0 0 0 0 0.882353 0 0 0 0.16 0"/>
<feBlend mode="normal" in2="BackgroundImageFix" result="effect1_dropShadow_2_1921"/>
<feBlend mode="normal" in="SourceGraphic" in2="effect1_dropShadow_2_1921" result="shape"/>
</filter>
</defs>
</svg>
