<svg width="108" height="108" viewBox="0 0 108 108" fill="none" xmlns="http://www.w3.org/2000/svg">
<g opacity="0.26" filter="url(#filter0_d_2_1966)">
<rect x="11" y="11" width="86" height="86" rx="6" fill="#D17633"/>
</g>
<path d="M51.8088 49.4824C51.8293 49.0176 52.0285 48.5785 52.3649 48.2568C52.7013 47.9351 53.149 47.7555 53.6146 47.7555C54.0803 47.7555 54.528 47.9351 54.8644 48.2568C55.2008 48.5785 55.4 49.0176 55.4205 49.4824C55.5261 53.8852 56.9307 57.3649 58.6415 57.3649C60.421 57.3649 61.8678 53.6052 61.8678 48.9638C61.8687 48.1466 61.8224 47.3301 61.729 46.5182C61.6695 45.9605 61.7265 45.3965 61.8965 44.862C62.0665 44.3274 62.3457 43.834 62.7164 43.4129C64.1566 41.6665 64.9283 39.4651 64.8934 37.2024C64.8934 32.4625 61.7516 28.625 57.8706 28.625C57.0425 28.6258 56.2238 28.8012 55.4682 29.1397C54.9229 29.3821 54.3328 29.5073 53.7361 29.5073C53.1393 29.5073 52.5492 29.3821 52.004 29.1397C51.2484 28.8012 50.4297 28.6258 49.6016 28.625C45.7259 28.625 42.5788 32.4625 42.5788 37.2024C42.5488 39.3872 43.2666 41.5167 44.6132 43.2383C44.9646 43.6572 45.2271 44.1432 45.3847 44.6667C45.5422 45.1902 45.5915 45.7403 45.5296 46.2835C45.4164 47.1724 45.3603 48.0677 45.3615 48.9638C45.3615 53.6052 46.8083 57.3649 48.5878 57.3649C50.2986 57.3649 51.7032 53.8852 51.8088 49.4824Z" stroke="#D17633" stroke-width="2" stroke-linecap="round" stroke-linejoin="round"/>
<path d="M61.0691 36.3596C60.4744 34.9411 59.4846 33.7232 58.2173 32.8506" stroke="#D17633" stroke-width="2" stroke-linecap="round" stroke-linejoin="round"/>
<path d="M43.4161 67.668L34.1814 57.3642V44.4997C34.1751 43.7718 33.8796 43.0763 33.3601 42.566C32.8405 42.0558 32.1395 41.7726 31.411 41.7789C30.6826 41.7726 29.9815 42.0558 29.462 42.566C28.9425 43.0763 28.647 43.7718 28.6406 44.4997V56.4844C28.6408 57.0629 28.7856 57.6322 29.0618 58.1406L36.1309 71.1737C36.6142 72.0634 36.8675 73.0597 36.8679 74.072V76.7075C36.872 77.1787 37.0633 77.629 37.3996 77.9593C37.7359 78.2896 38.1898 78.4729 38.6613 78.4688H46.408C46.8795 78.4729 47.3333 78.2896 47.6697 77.9593C48.006 77.629 48.1972 77.1787 48.2014 76.7075V65.5817C48.2007 65.1176 48.1074 64.6583 47.927 64.2306C47.7466 63.8029 47.4828 63.4155 47.1508 63.0909L39.6231 55.6978C39.1359 55.2228 38.4838 54.9543 37.8031 54.9485C37.1223 54.9427 36.4658 55.2001 35.9705 55.6668C35.4893 56.1196 35.2046 56.7427 35.1774 57.4027C35.1502 58.0627 35.3827 58.7071 35.825 59.1979L43.4161 67.668Z" stroke="#D17633" stroke-width="2" stroke-linecap="round" stroke-linejoin="round"/>
<path d="M63.7088 67.667L72.9435 57.3632V44.4988C72.9499 43.7708 73.2453 43.0753 73.7648 42.565C74.2844 42.0548 74.9855 41.7717 75.7139 41.7779C76.4423 41.7717 77.1434 42.0548 77.6629 42.565C78.1825 43.0753 78.4779 43.7708 78.4843 44.4988V56.4835C78.4841 57.0619 78.3393 57.6312 78.0632 58.1396L70.994 71.1728C70.5107 72.0625 70.2574 73.0587 70.257 74.071V76.7065C70.2529 77.1777 70.0616 77.628 69.7253 77.9583C69.389 78.2886 68.9352 78.4719 68.4636 78.4678H60.717C60.2454 78.4719 59.7916 78.2886 59.4553 77.9583C59.119 77.628 58.9277 77.1777 58.9236 76.7065V65.5808C58.9243 65.1167 59.0175 64.6574 59.1979 64.2297C59.3783 63.802 59.6422 63.4145 59.9741 63.09L67.5018 55.6969C67.989 55.2218 68.6412 54.9533 69.3219 54.9476C70.0026 54.9418 70.6592 55.1991 71.1544 55.6659C71.6356 56.1187 71.9203 56.7418 71.9475 57.4018C71.9747 58.0617 71.7423 58.7061 71.3 59.197L63.7088 67.667Z" stroke="#D17633" stroke-width="2" stroke-linecap="round" stroke-linejoin="round"/>
<defs>
<filter id="filter0_d_2_1966" x="0.9" y="0.9" width="106.2" height="106.2" filterUnits="userSpaceOnUse" color-interpolation-filters="sRGB">
<feFlood flood-opacity="0" result="BackgroundImageFix"/>
<feColorMatrix in="SourceAlpha" type="matrix" values="0 0 0 0 0 0 0 0 0 0 0 0 0 0 0 0 0 0 127 0" result="hardAlpha"/>
<feOffset/>
<feGaussianBlur stdDeviation="5.05"/>
<feComposite in2="hardAlpha" operator="out"/>
<feColorMatrix type="matrix" values="0 0 0 0 0.192157 0 0 0 0 0.466667 0 0 0 0 0.882353 0 0 0 0.16 0"/>
<feBlend mode="normal" in2="BackgroundImageFix" result="effect1_dropShadow_2_1966"/>
<feBlend mode="normal" in="SourceGraphic" in2="effect1_dropShadow_2_1966" result="shape"/>
</filter>
</defs>
</svg>
