<svg width="108" height="108" viewBox="0 0 108 108" fill="none" xmlns="http://www.w3.org/2000/svg">
<g opacity="0.4" filter="url(#filter0_d_2_1944)">
<rect x="11" y="11" width="86" height="86" rx="6" fill="#C2D1FF"/>
</g>
<path d="M69.1766 32.3568C66.3309 33.2007 63.8856 34.7796 62.1991 36.8622C60.5127 38.9448 59.6739 41.4214 59.8057 43.9289C59.9376 46.4364 61.0331 48.8428 62.9317 50.7954C64.8303 52.7479 67.4321 54.1438 70.3555 54.7783C69.8851 55.7514 69.7178 56.8072 69.869 57.8482C70.0716 59.2329 70.1716 60.6267 70.1684 62.0216C70.1684 69.2416 67.5954 75.0938 64.4236 75.0938C61.3735 75.0938 58.8754 69.6846 58.6882 62.8299C58.6909 62.4774 58.6096 62.128 58.449 61.8017C58.2885 61.4754 58.0518 61.1787 57.7527 60.9287C57.4535 60.6786 57.0978 60.4802 56.706 60.3448C56.3142 60.2094 55.894 60.1397 55.4697 60.1397C55.0453 60.1397 54.6251 60.2094 54.2333 60.3448C53.8415 60.4802 53.4858 60.6786 53.1867 60.9287C52.8875 61.1787 52.6509 61.4754 52.4903 61.8017C52.3298 62.128 52.2485 62.4774 52.2511 62.8299C52.064 69.6846 49.5659 75.0938 46.5157 75.0938C43.3439 75.0938 40.771 69.2416 40.771 62.0216C40.7692 60.7495 40.8504 59.4783 41.0142 58.2135C41.1235 57.3522 41.0241 56.4815 40.722 55.6526C40.4199 54.8238 39.9212 54.0535 39.2552 53.3872C36.6724 50.6266 35.3055 47.2147 35.3817 43.7191C35.3817 36.3437 40.9768 30.375 47.8911 30.375C49.37 30.3766 50.8301 30.65 52.1669 31.1755C53.1315 31.5517 54.1841 31.7467 55.2498 31.7467C56.3155 31.7467 57.3681 31.5517 58.3327 31.1755C59.6724 30.6491 61.1359 30.3758 62.6179 30.375C65.0124 30.3941 67.327 31.0935 69.1766 32.3568Z" stroke="#2952CE" stroke-width="2" stroke-linecap="round" stroke-linejoin="round"/>
<path d="M72.2923 52.1827C74.1831 49.6414 75.1662 46.7065 75.1273 43.7192C75.1782 40.5131 74.0344 37.3724 71.8526 34.7273C67.4551 36.3982 64.4705 39.6391 64.4705 43.3773C64.4705 47.2321 67.6516 50.5739 72.2923 52.1827Z" stroke="#2952CE" stroke-width="2" stroke-linecap="round" stroke-linejoin="round"/>
<path d="M41.4126 40.1873C42.4982 37.9886 44.3187 36.094 46.6591 34.7273" stroke="#2952CE" stroke-width="2" stroke-linecap="round" stroke-linejoin="round"/>
<defs>
<filter id="filter0_d_2_1944" x="0.9" y="0.9" width="106.2" height="106.2" filterUnits="userSpaceOnUse" color-interpolation-filters="sRGB">
<feFlood flood-opacity="0" result="BackgroundImageFix"/>
<feColorMatrix in="SourceAlpha" type="matrix" values="0 0 0 0 0 0 0 0 0 0 0 0 0 0 0 0 0 0 127 0" result="hardAlpha"/>
<feOffset/>
<feGaussianBlur stdDeviation="5.05"/>
<feComposite in2="hardAlpha" operator="out"/>
<feColorMatrix type="matrix" values="0 0 0 0 0.192157 0 0 0 0 0.466667 0 0 0 0 0.882353 0 0 0 0.16 0"/>
<feBlend mode="normal" in2="BackgroundImageFix" result="effect1_dropShadow_2_1944"/>
<feBlend mode="normal" in="SourceGraphic" in2="effect1_dropShadow_2_1944" result="shape"/>
</filter>
</defs>
</svg>
